<svg width="132" height="40" viewBox="0 0 132 40" fill="none" xmlns="http://www.w3.org/2000/svg">
<path d="M28.7998 13.0373L24.9897 16.8402L24.7992 17.0276L23.5899 18.2374L22.687 19.1385L21.4749 20.3483L21.2872 20.5357L20.7599 21.062L20.5721 21.2522L18.7995 23.0297L18.6118 23.217C17.8367 23.9943 16.905 24.5983 15.8784 24.989C15.1402 25.2735 14.3628 25.4436 13.573 25.4933C12.0241 25.5916 10.4806 25.2311 9.1361 24.4571C8.72238 24.2396 8.33825 23.9701 7.99305 23.6552L7.76941 23.4348L0.833815 16.5095L0.684723 16.3635C0.245663 15.8793 0.00174408 15.2501 0 14.597C0 14.5199 0 14.4455 0 14.3711C0.0107487 14.261 0.0273359 14.1515 0.0496957 14.0431C0.0496957 14.0018 0.0690228 13.9605 0.0800667 13.9219V13.8695C0.180954 13.5387 0.343993 13.2301 0.56048 12.9601C0.621221 12.8885 0.681961 12.8196 0.748225 12.7507L0.872472 12.6322L8.26363 5.25228L12.7419 0.782443C13.2187 0.304807 13.8594 0.0257387 14.5345 0.00169335C15.2095 -0.022352 15.8685 0.21042 16.3782 0.652922L28.7998 13.0373Z" fill="#0B5DA9"/>
<path d="M15.3067 29.649C14.7038 29.6466 14.1085 29.514 13.5617 29.2604L12.1426 27.8467L11.7947 27.4885L11.734 27.4278L11.0686 26.7802L7.75537 23.4403L7.97901 23.6607C8.3273 23.9765 8.71637 24.2444 9.13586 24.4571C10.1478 25.0396 11.2773 25.3891 12.4419 25.4802C13.6064 25.5713 14.7767 25.4016 15.8671 24.9835C16.8937 24.5927 17.8254 23.9888 18.6005 23.2115L18.7883 23.0241L20.5719 21.2467L20.7596 21.0565L21.287 20.5302L21.4747 20.3428L22.6868 19.133L23.5896 18.2319L24.7989 17.0221L24.9894 16.8347L32.665 9.17371L35.8318 5.74831L35.8512 5.72902L36.0223 5.56091C36.4878 5.09982 37.117 4.84106 37.7728 4.84106C38.4286 4.84106 39.0578 5.09982 39.5233 5.56091L41.2572 7.29153L41.3151 7.3494C40.9252 7.32979 40.5353 7.39118 40.1703 7.52969C39.8053 7.6682 39.4731 7.88081 39.1947 8.15408L33.3276 13.9136L33.2669 13.9853L23.0512 24.0135H23.0347L19.2742 27.7007L19.2494 27.731C19.2494 27.731 19.1582 27.8329 19.023 27.968C18.5102 28.4658 17.9212 28.8789 17.278 29.1915C16.9168 29.3625 16.5369 29.491 16.146 29.5746C15.9221 29.6196 15.695 29.6473 15.4668 29.6572L15.3067 29.649Z" fill="#EB2429"/>
<path d="M50.6505 20.1692L50.4627 20.3566L42.1466 28.7837L33.4136 37.6324C33.1409 37.9062 32.8473 38.1587 32.5356 38.3875C32.5252 38.3983 32.5142 38.4084 32.5025 38.4178C32.4583 38.4453 32.4169 38.4784 32.3727 38.5087H32.3589C30.8373 39.5911 28.9857 40.1113 27.1217 39.9801C25.2578 39.8488 23.4977 39.0744 22.1433 37.7895C22.077 37.7316 22.0108 37.6765 21.9473 37.6159L20.4453 36.1167L16.2155 31.8977L14.8074 30.4922L14.6113 30.2966C14.8406 30.3319 15.0723 30.3494 15.3043 30.3489H15.4976C15.7666 30.34 16.0345 30.3086 16.2983 30.2552C16.7464 30.16 17.1819 30.0129 17.596 29.8171C18.3089 29.4704 18.9614 29.0117 19.5286 28.4585C19.6584 28.3317 19.755 28.227 19.8047 28.1829L23.0434 25.0083H23.0572L34.2143 14.0514L34.2751 13.9798L39.6949 8.65563C40.0484 8.31218 40.5099 8.10104 41.0014 8.05786C41.4928 8.01468 41.9841 8.14212 42.3924 8.41864L43.679 9.70006L50.6505 16.6556C50.7112 16.719 50.7692 16.7824 50.8244 16.8485C51.2126 17.3252 51.4097 17.9288 51.3776 18.5422C51.3454 19.1557 51.0863 19.7355 50.6505 20.1692Z" fill="#EB2429"/>
<path d="M23.7141 10.9539C23.6185 11.0482 23.4896 11.101 23.3552 11.101C23.2208 11.101 23.0919 11.0482 22.9963 10.9539C22.2167 10.1495 21.2849 9.50767 20.2548 9.06558C19.2248 8.62349 18.117 8.38999 16.9958 8.37861C15.8746 8.36724 14.7623 8.57823 13.7235 8.99933C12.6846 9.42043 11.7399 10.0433 10.9441 10.8317C10.1484 11.6201 9.51742 12.5584 9.08787 13.5921C8.65832 14.6259 8.43873 15.7345 8.44185 16.8536C8.44497 17.9727 8.67074 19.0801 9.10605 20.1114C9.54137 21.1428 10.1776 22.0776 10.9777 22.8615L13.5509 25.452C13.5703 25.4679 13.5863 25.4876 13.5979 25.5098H13.5537C13.0842 25.5407 12.6129 25.5287 12.1456 25.474L10.2543 23.5698C9.37743 22.688 8.68313 21.6425 8.21105 20.493C7.73898 19.3434 7.49838 18.1123 7.50299 16.8699C7.50761 15.6275 7.75735 14.3982 8.23795 13.2522C8.71855 12.1062 9.4206 11.0658 10.304 10.1906C11.1874 9.31535 12.2349 8.62236 13.3867 8.15118C14.5384 7.68 15.7719 7.43986 17.0166 7.44446C18.2613 7.44907 19.493 7.69833 20.6412 8.17802C21.7894 8.65771 22.8317 9.35844 23.7086 10.2402C23.7566 10.2863 23.7949 10.3415 23.8213 10.4026C23.8476 10.4637 23.8615 10.5294 23.862 10.5959C23.8625 10.6624 23.8497 10.7283 23.8243 10.7898C23.7989 10.8513 23.7614 10.9071 23.7141 10.9539Z" fill="#089DD9"/>
<path d="M27.6513 14.1837L26.9362 14.8974L25.6799 13.638C25.5855 13.543 25.5327 13.4144 25.5332 13.2806C25.5337 13.1467 25.5875 13.0186 25.6827 12.9243C25.7779 12.83 25.9067 12.7773 26.0408 12.7778C26.1749 12.7784 26.3033 12.832 26.3978 12.927L27.6513 14.1837Z" fill="#089DD9"/>
<path d="M16.8671 24.5288H16.845C16.5375 24.6973 16.2193 24.8455 15.8924 24.9725L12.386 21.4424C11.3223 20.3721 10.6656 18.9651 10.529 17.4638C10.3925 15.9624 10.7845 14.4604 11.6378 13.2164C11.6731 13.1568 11.7204 13.1051 11.7766 13.0645C11.8329 13.0239 11.8969 12.9953 11.9647 12.9806C12.0325 12.9658 12.1027 12.9651 12.1708 12.9785C12.2389 12.992 12.3034 13.0193 12.3605 13.0588C12.4175 13.0983 12.4658 13.1491 12.5023 13.208C12.5388 13.2669 12.5628 13.3327 12.5727 13.4013C12.5826 13.4698 12.5782 13.5397 12.5599 13.6065C12.5415 13.6733 12.5096 13.7357 12.466 13.7896C11.7462 14.8395 11.4156 16.107 11.531 17.374C11.6464 18.641 12.2006 19.8282 13.0983 20.7314L16.8671 24.5288Z" fill="#089DD9"/>
<path d="M25.5338 16.2973L25.5172 16.3139L24.9898 16.8402L24.8186 17.0083L20.8732 13.04C20.1604 12.3192 19.2603 11.8112 18.274 11.5731C17.2878 11.3351 16.2545 11.3764 15.2905 11.6925C15.2272 11.7127 15.1606 11.7204 15.0943 11.7149C15.0281 11.7095 14.9636 11.6911 14.9045 11.6607C14.8454 11.6304 14.7929 11.5888 14.7499 11.5382C14.707 11.4876 14.6744 11.4291 14.6541 11.3659C14.6338 11.3028 14.6261 11.2362 14.6316 11.1701C14.637 11.104 14.6555 11.0397 14.6859 10.9807C14.7162 10.9217 14.758 10.8693 14.8087 10.8264C14.8593 10.7835 14.918 10.751 14.9813 10.7307C16.123 10.358 17.3462 10.3102 18.5137 10.5925C19.6812 10.8748 20.7468 11.4761 21.5911 12.329L25.5338 16.2973Z" fill="#089DD9"/>
<path d="M23.4187 18.4082L22.7036 19.122L18.7498 15.1454C18.5233 14.9009 18.2497 14.7045 17.9455 14.5678C17.6412 14.4311 17.3125 14.357 16.9789 14.3499C16.6453 14.3427 16.3137 14.4027 16.0039 14.5262C15.694 14.6497 15.4123 14.8343 15.1754 15.0688C14.9386 15.3034 14.7515 15.5831 14.6253 15.8914C14.4991 16.1997 14.4364 16.5302 14.4409 16.8632C14.4455 17.1962 14.5172 17.5249 14.6517 17.8296C14.7862 18.1343 14.9809 18.4089 15.2241 18.637L17.7724 21.2026C17.8192 21.2496 17.8562 21.3054 17.8814 21.3667C17.9066 21.4281 17.9194 21.4937 17.9192 21.56C17.9189 21.6263 17.9056 21.6919 17.8799 21.753C17.8543 21.8141 17.8168 21.8696 17.7697 21.9163C17.7226 21.963 17.6667 22 17.6052 22.0251C17.5438 22.0502 17.478 22.063 17.4116 22.0627C17.3452 22.0625 17.2795 22.0492 17.2182 22.0236C17.157 21.998 17.1014 21.9606 17.0546 21.9136L14.5034 19.3479C14.1802 19.0222 13.9244 18.6362 13.7506 18.2118C13.5769 17.7874 13.4886 17.3331 13.4908 16.8746C13.4929 16.4162 13.5856 15.9627 13.7633 15.54C13.9411 15.1173 14.2006 14.7336 14.5269 14.411C14.8532 14.0884 15.24 13.8331 15.6652 13.6596C16.0904 13.4862 16.5456 13.3981 17.0049 13.4002C17.4642 13.4024 17.9186 13.4949 18.3421 13.6723C18.7656 13.8498 19.15 14.1087 19.4732 14.4344L23.4187 18.4082Z" fill="#089DD9"/>
<path d="M21.3066 20.5192L21.2873 20.5357L20.7599 21.062L20.5915 21.2329L16.6267 17.2453C16.5799 17.1983 16.5429 17.1425 16.5177 17.0812C16.4926 17.0198 16.4797 16.9542 16.48 16.8879C16.4802 16.8216 16.4936 16.756 16.5192 16.6949C16.5449 16.6338 16.5823 16.5783 16.6295 16.5316C16.6766 16.4849 16.7325 16.4479 16.7939 16.4228C16.8554 16.3977 16.9212 16.3849 16.9876 16.3851C17.054 16.3854 17.1197 16.3987 17.1809 16.4243C17.2422 16.4499 17.2978 16.4873 17.3446 16.5343L21.3066 20.5192Z" fill="#089DD9"/>
<path fill-rule="evenodd" clip-rule="evenodd" d="M120.89 20.2904L114.998 11.8578L114.396 11.3067H120.194L124.131 17.6807L124.449 17.4245L126.829 13.8943C127.126 13.5064 127.258 13.0175 127.196 12.5333C127.135 12.049 126.885 11.6084 126.5 11.3067H132L125.65 20.2849V26.8023L126.754 28.1278H119.935L120.898 26.8216C120.898 24.65 120.818 22.4537 120.873 20.2877L120.89 20.2904ZM104.876 11.3094C105.348 11.9543 105.486 12.1802 105.539 12.7534C105.585 13.0915 105.544 13.4357 105.42 13.7538L101.038 26.4303C100.751 27.0674 100.325 27.6323 99.7905 28.0837H104.575C104.229 27.7928 103.994 27.3919 103.91 26.9483C103.834 26.6352 103.839 26.3079 103.926 25.9976L104.898 22.9856H110.464L111.334 25.3059C111.421 25.541 111.477 25.7865 111.5 26.0362C111.554 26.4322 111.5 26.8355 111.342 27.2029C111.185 27.5704 110.93 27.8882 110.605 28.1223H118.107C117.37 27.4664 116.693 26.783 116.312 25.9508L110.837 11.2957L104.876 11.3094ZM109.65 20.814H105.68L107.612 15.3218L109.664 20.814H109.65ZM89.7129 11.3232L93.4816 11.3094H98.0676C99.2803 11.3123 100.443 11.7943 101.3 12.6499C102.158 13.5055 102.642 14.6653 102.645 15.8757V16.4269C102.645 18.9401 100.583 20.8554 98.0676 20.9298L95.9803 20.9932C97.659 20.2243 98.3603 18.2787 98.1532 16.5261C97.9848 15.1206 97.2587 13.7703 96.0493 13.7428L95.279 13.7373V26.2566C95.2732 26.4542 95.3334 26.6482 95.4502 26.8078C95.6771 27.1663 95.931 27.5072 96.2095 27.8274L96.4276 28.103H89.9393C90.0359 27.9845 90.1326 27.8633 90.2154 27.7392C90.417 27.4714 90.5848 27.1799 90.7151 26.8712C90.7995 26.6928 90.8428 26.498 90.8421 26.3007V12.8527C90.8311 12.1499 90.1353 11.7531 89.7239 11.3232H89.7129Z" fill="#0B5DA9"/>
<path fill-rule="evenodd" clip-rule="evenodd" d="M54.535 11.2295H59.7809L64.1791 23.8123L67.9064 13.3872C67.9738 13.0849 67.9224 12.7683 67.7629 12.5026C67.5558 12.081 67.3349 11.6759 67.1278 11.246H71.0374C70.8027 12.0976 70.4604 13.0318 70.1649 13.8888L65.1123 28.5467C63.7318 28.2711 62.1967 27.7199 61.0067 26.6011C60.1122 25.7551 59.7947 24.7906 59.3501 23.6442L55.1231 12.4751C54.9548 12.0469 54.7574 11.6308 54.5322 11.2295H54.535ZM75.455 17.1241V26.1188C75.455 26.4826 75.5378 26.5487 75.7642 26.8408L76.7968 28.1829H71.8657L72.694 26.9153C72.8981 26.6702 73.0078 26.3604 73.0032 26.0417V13.4837L71.6227 11.235H76.7333L85.0163 21.8722V13.3928C85.0246 13.0729 84.9211 12.7602 84.7236 12.5082C84.4475 12.0865 84.1548 11.6814 83.876 11.2515H88.7905L87.7634 12.6074C87.537 12.9022 87.4542 12.9656 87.4542 13.3321V28.6183C85.5878 28.373 83.8484 27.9183 82.305 25.948L75.455 17.1241Z" fill="#EB2429"/>
<path d="M59.7724 33.8735C59.7724 34.5487 60.0485 34.8959 60.794 34.8959C61.0771 34.8966 61.3579 34.8453 61.6223 34.7444C61.7548 34.692 61.7935 34.7278 61.7935 34.8711V34.929C61.7935 35.0502 61.7603 35.0971 61.6223 35.1605C61.3596 35.2671 61.0773 35.3169 60.794 35.3065C59.7807 35.3065 59.3003 34.8546 59.3003 33.8625V32.9448C59.3003 31.9445 59.7807 31.4402 60.7829 31.4402C61.0595 31.4393 61.3338 31.4897 61.5919 31.589C61.73 31.6414 61.7603 31.6937 61.7603 31.8095V31.8977C61.7603 32.041 61.7024 32.0823 61.5781 32.0299C61.3211 31.9228 61.0449 31.8693 60.7664 31.8729C60.0623 31.8729 59.7614 32.2146 59.7614 32.9559L59.7724 33.8735Z" fill="#089DD9"/>
<path d="M60.8054 35.3231C59.7838 35.3231 59.3062 34.8629 59.3062 33.8736V32.9449C59.3062 31.928 59.7921 31.4347 60.7943 31.4347C61.0718 31.4334 61.3471 31.4839 61.6061 31.5835C61.7524 31.6386 61.7772 31.6993 61.7772 31.8095V31.8977C61.7772 31.9748 61.7607 32.0217 61.7275 32.0437C61.6944 32.0658 61.6502 32.063 61.5895 32.0437C61.3323 31.9374 61.0561 31.8849 60.7778 31.8894C60.0875 31.8894 59.781 32.2201 59.781 32.9642V33.8928C59.781 34.5956 60.093 34.907 60.7943 34.907C61.0772 34.9079 61.3579 34.8575 61.6226 34.7582C61.6916 34.7306 61.7331 34.7278 61.7607 34.7582C61.7883 34.7885 61.8021 34.8215 61.8021 34.9015V34.929C61.8021 35.0558 61.7689 35.1026 61.6254 35.166C61.3666 35.2768 61.0869 35.3304 60.8054 35.3231ZM60.8054 31.4457C59.8114 31.4457 59.331 31.9363 59.331 32.9449V33.8736C59.331 34.8546 59.8031 35.3121 60.8164 35.3121C61.0999 35.3241 61.3825 35.2743 61.6447 35.166C61.78 35.1026 61.8131 35.0613 61.8131 34.94V34.8711C61.8131 34.794 61.8131 34.7526 61.7772 34.7361C61.7413 34.7196 61.711 34.7361 61.6475 34.7361C61.3829 34.8363 61.1022 34.8877 60.8192 34.8877C60.1096 34.8877 59.7921 34.5708 59.7921 33.8598V32.9449C59.7921 32.1925 60.1041 31.8426 60.8026 31.8426C61.082 31.8387 61.3592 31.8922 61.6171 31.9996C61.6373 32.0094 61.6595 32.0145 61.682 32.0145C61.7045 32.0145 61.7266 32.0094 61.7469 31.9996C61.7642 31.9815 61.7772 31.9597 61.7849 31.9358C61.7925 31.912 61.7946 31.8867 61.791 31.8619V31.7847C61.791 31.6772 61.7689 31.6249 61.6254 31.5697C61.359 31.4752 61.0768 31.4331 60.7943 31.4457H60.8054Z" fill="#089DD9"/>
<path d="M62.4229 31.3879C62.4229 31.2308 62.4615 31.2032 62.6078 31.2032H62.6741C62.8287 31.2032 62.8563 31.2308 62.8563 31.3879V32.7382C62.962 32.5998 63.1016 32.4908 63.2616 32.4218C63.4217 32.3528 63.5968 32.326 63.7702 32.3441C64.4825 32.3441 64.8442 32.6803 64.8442 33.3582V35.0751C64.8442 35.2294 64.8139 35.2597 64.6593 35.2597H64.5875C64.4328 35.2597 64.4025 35.2294 64.4025 35.0751V33.4216C64.4025 32.9642 64.1982 32.7658 63.6598 32.7658C63.1214 32.7658 62.8563 32.9862 62.8563 33.5208V35.0861C62.8563 35.2404 62.8287 35.2707 62.6741 35.2707H62.6078C62.4615 35.2707 62.4229 35.2404 62.4229 35.0861V31.3879Z" fill="#089DD9"/>
<path d="M64.6594 35.2652H64.5876C64.4302 35.2652 64.3971 35.2349 64.3971 35.0751V33.4216C64.3971 32.9586 64.1845 32.7712 63.6599 32.7712C63.1353 32.7712 62.862 32.9945 62.862 33.5208V35.0861C62.862 35.2459 62.8316 35.2762 62.6743 35.2762H62.608C62.4534 35.2762 62.4175 35.2404 62.4175 35.0861V31.3878C62.4175 31.2225 62.4617 31.1949 62.608 31.1949H62.6743C62.8316 31.1949 62.862 31.228 62.862 31.3878V32.7244C62.97 32.5909 63.1096 32.4862 63.2681 32.4199C63.4267 32.3535 63.5992 32.3275 63.7704 32.3441C64.4855 32.3441 64.8499 32.6858 64.8499 33.3637V35.0806C64.8499 35.2349 64.8168 35.2652 64.6594 35.2652ZM63.6599 32.7492C64.1928 32.7492 64.4109 32.9393 64.4109 33.4106V35.064C64.4109 35.2156 64.4358 35.2432 64.5876 35.2432H64.6594C64.8113 35.2432 64.8389 35.2156 64.8389 35.064V33.3582C64.8389 32.6886 64.4799 32.3496 63.7704 32.3496C63.598 32.3308 63.4236 32.357 63.2644 32.4256C63.1052 32.4942 62.9665 32.6028 62.862 32.7409V32.7575V31.3796C62.862 31.228 62.8344 31.2005 62.6853 31.2005H62.619C62.4782 31.2005 62.4396 31.2225 62.4396 31.3796V35.0668C62.4396 35.2211 62.481 35.2459 62.619 35.2459H62.6853C62.8344 35.2459 62.862 35.2183 62.862 35.0668V33.5015C62.851 32.9752 63.0939 32.7492 63.6599 32.7492Z" fill="#089DD9"/>
<path d="M65.46 34.1023V33.5511C65.46 32.7409 65.8824 32.3358 66.7355 32.3358C67.6356 32.3358 68.0028 32.7574 68.0028 33.5511V34.1023C68.0028 34.9143 67.5804 35.3203 66.7355 35.3203C65.8382 35.3175 65.46 34.8959 65.46 34.1023ZM67.5694 33.5511C67.5694 33 67.3678 32.7464 66.7411 32.7464C66.1143 32.7464 65.899 32.9944 65.899 33.5511V34.1023C65.899 34.6534 66.1088 34.9097 66.7411 34.9097C67.3733 34.9097 67.5694 34.6589 67.5694 34.1023V33.5511Z" fill="#089DD9"/>
<path d="M66.7415 35.3231C65.8663 35.3231 65.4604 34.9345 65.4604 34.0995V33.5484C65.448 33.3823 65.4698 33.2155 65.5244 33.0581C65.579 32.9008 65.6653 32.7563 65.7779 32.6334C66.0473 32.4107 66.3927 32.3011 66.7415 32.3276C67.6085 32.3276 68.0143 32.7161 68.0143 33.5484V34.0995C68.0143 34.9125 67.5864 35.3231 66.7415 35.3231ZM66.7415 32.3496C66.3958 32.324 66.0536 32.4326 65.7862 32.6527C65.674 32.7728 65.5874 32.9143 65.5314 33.0687C65.4754 33.2231 65.4512 33.3872 65.4604 33.5511V34.1023C65.4604 34.929 65.8635 35.3148 66.7305 35.3148C67.0736 35.3406 67.4133 35.2318 67.6775 35.0117C67.7889 34.8893 67.8743 34.7455 67.9284 34.5892C67.9825 34.4329 68.0042 34.2672 67.9922 34.1023V33.5511C68.0033 32.7244 67.6002 32.3496 66.7415 32.3496ZM66.7415 34.9125C66.1313 34.9125 65.8939 34.6837 65.8939 34.0995V33.5484C65.8939 32.9586 66.123 32.7382 66.7415 32.7382C67.36 32.7382 67.5698 32.9586 67.5698 33.5484V34.0995C67.5808 34.692 67.3517 34.9125 66.7415 34.9125ZM66.7415 32.7602C66.1313 32.7602 65.9132 32.9779 65.9132 33.5594V34.1105C65.9132 34.6865 66.1479 34.9125 66.7415 34.9125C67.3351 34.9125 67.5698 34.6947 67.5698 34.1105V33.5594C67.567 32.9779 67.3434 32.7602 66.7415 32.7602Z" fill="#089DD9"/>
<path d="M70.118 33.5511C70.118 32.7933 70.5294 32.3523 71.4129 32.3523C71.5861 32.3483 71.7588 32.3735 71.9237 32.4268C72.0645 32.4736 72.1004 32.5149 72.1004 32.6472V32.7051C72.1004 32.8511 72.0645 32.8897 71.9237 32.8456C71.7631 32.7894 71.594 32.7614 71.4239 32.763C70.7723 32.763 70.5542 33.0192 70.5542 33.5594V34.1105C70.5542 34.6947 70.8165 34.9042 71.4598 34.9042C71.6378 34.9075 71.815 34.8815 71.9844 34.827C72.1169 34.7829 72.1556 34.827 72.1556 34.9731V35.0309C72.1556 35.1522 72.1169 35.199 71.9706 35.2404C71.7914 35.2932 71.6052 35.3183 71.4184 35.3148C70.5294 35.3148 70.1069 34.9317 70.1069 34.1133L70.118 33.5511Z" fill="#089DD9"/>
<path d="M71.4292 35.3231C71.0733 35.3533 70.7192 35.248 70.438 35.0282C70.3214 34.9084 70.2319 34.7649 70.1757 34.6075C70.1195 34.4502 70.0979 34.2826 70.1122 34.1161V33.5512C70.1014 33.3894 70.1239 33.2272 70.1786 33.0745C70.2332 32.9219 70.3187 32.7821 70.4297 32.6638C70.7029 32.4334 71.056 32.3195 71.4126 32.3469C71.5867 32.3438 71.7602 32.3689 71.9262 32.4213C72.0698 32.4681 72.1056 32.5122 72.1056 32.6473V32.7051C72.1056 32.7878 72.0918 32.8347 72.0642 32.854C72.0366 32.8732 71.9924 32.8732 71.9234 32.854C71.7629 32.7976 71.5938 32.7696 71.4237 32.7713C70.8107 32.7713 70.5595 33 70.5595 33.5622V34.1133C70.5595 34.6865 70.8025 34.9015 71.4596 34.9015C71.6367 34.9057 71.8131 34.8796 71.9814 34.8243C72.0024 34.8139 72.0256 34.8085 72.049 34.8085C72.0725 34.8085 72.0957 34.8139 72.1167 34.8243C72.1498 34.8464 72.1609 34.8932 72.1609 34.9786V35.0365C72.1609 35.1633 72.1195 35.2101 71.9731 35.2515C71.7965 35.3028 71.6131 35.3269 71.4292 35.3231ZM71.4126 32.3496C70.5705 32.3496 70.126 32.763 70.126 33.5429V34.1161C70.126 34.9428 70.5402 35.3121 71.4292 35.3121C71.6162 35.3165 71.8028 35.2904 71.9814 35.2349C72.1222 35.1963 72.1609 35.155 72.1609 35.0338V34.9759C72.1609 34.896 72.1609 34.8519 72.1222 34.8326C72.0836 34.8133 72.0587 34.816 71.9952 34.8326C71.8255 34.8853 71.6483 34.9104 71.4706 34.907C70.8135 34.907 70.5595 34.6838 70.5595 34.1078V33.5567C70.5595 32.9862 70.8135 32.7547 71.4347 32.7547C71.6058 32.7531 71.7758 32.781 71.9372 32.8374C72.0035 32.8567 72.0421 32.8595 72.067 32.8374C72.0918 32.8154 72.1056 32.7768 72.1056 32.6969V32.639C72.1056 32.5122 72.0725 32.4709 71.9345 32.4241C71.7659 32.3705 71.5895 32.3454 71.4126 32.3496Z" fill="#089DD9"/>
<path d="M72.9974 34.2346C72.9974 34.692 73.1879 34.907 73.776 34.907C74.3641 34.907 74.5464 34.6975 74.5464 34.2346V32.5811C74.5464 32.4378 74.5878 32.3965 74.7341 32.3965H74.7976C74.955 32.3965 74.9853 32.4378 74.9853 32.5811V34.2346C74.9853 34.9345 74.6292 35.3176 73.776 35.3176C72.9671 35.3176 72.564 34.9593 72.564 34.2346V32.5811C72.564 32.4378 72.6026 32.3965 72.7489 32.3965H72.8097C72.9671 32.3965 72.9974 32.4378 72.9974 32.5811V34.2346Z" fill="#089DD9"/>
<path d="M73.7762 35.3231C72.9672 35.3231 72.5586 34.9566 72.5586 34.2208V32.5673C72.5586 32.4185 72.6 32.3772 72.7491 32.3772H72.8098C72.9755 32.3772 73.0031 32.424 73.0031 32.5673V34.2208C73.0031 34.7003 73.2212 34.8877 73.7762 34.8877C74.3311 34.8877 74.541 34.7058 74.541 34.2208V32.5673C74.541 32.4213 74.5852 32.3772 74.7343 32.3772H74.7978C74.9634 32.3772 74.991 32.424 74.991 32.5673V34.2208C75.0047 34.3672 74.9872 34.5149 74.9396 34.654C74.892 34.7932 74.8154 34.9207 74.7149 35.0282C74.4531 35.246 74.1158 35.3519 73.7762 35.3231ZM72.7491 32.4075C72.6055 32.4075 72.5696 32.4433 72.5696 32.5866V34.2401C72.5585 34.3884 72.5796 34.5373 72.6315 34.6767C72.6835 34.8161 72.765 34.9426 72.8706 35.0475C73.1283 35.2473 73.4507 35.3454 73.7762 35.3231C74.1068 35.3528 74.4361 35.2541 74.6956 35.0475C74.7956 34.9414 74.8719 34.8152 74.9195 34.6775C74.9671 34.5397 74.9849 34.3935 74.9717 34.2484V32.5949C74.9717 32.4571 74.9468 32.4158 74.7922 32.4158H74.7287C74.5852 32.4158 74.5465 32.4544 74.5465 32.5949V34.2484C74.5465 34.7361 74.3312 34.9263 73.7707 34.9263C73.2102 34.9263 72.9866 34.7361 72.9866 34.2484V32.5949C72.9866 32.4571 72.9617 32.4158 72.8043 32.4158L72.7491 32.4075Z" fill="#089DD9"/>
<path d="M75.5679 34.1023V33.5511C75.5679 32.7409 75.9903 32.3358 76.8435 32.3358C77.7435 32.3358 78.1107 32.7575 78.1107 33.5511V34.1023C78.1107 34.9143 77.6883 35.3203 76.8435 35.3203C75.9517 35.3176 75.5679 34.8959 75.5679 34.1023ZM77.6745 33.5511C77.6745 33 77.4757 32.7465 76.8462 32.7465C76.2167 32.7465 76.0041 32.9945 76.0041 33.5511V34.1023C76.0041 34.6534 76.2139 34.9097 76.8462 34.9097C77.4785 34.9097 77.6745 34.6589 77.6745 34.1023V33.5511ZM76.4321 31.5753C76.5729 31.3631 76.6529 31.2997 76.8435 31.2997C77.034 31.2997 77.1195 31.3576 77.2548 31.5753L77.4757 31.917C77.5475 32.0217 77.5227 32.052 77.4012 32.052H77.3542C77.3053 32.0589 77.2554 32.0493 77.2124 32.0249C77.1695 32.0005 77.1358 31.9625 77.1168 31.917L76.9815 31.6938C76.8904 31.5284 76.7993 31.5284 76.7054 31.6938L76.5784 31.917C76.5585 31.9624 76.5242 32.0002 76.4809 32.0246C76.4376 32.0489 76.3875 32.0586 76.3382 32.052H76.2857C76.1642 32.052 76.1477 32.0162 76.2112 31.917L76.4321 31.5753ZM76.6474 35.8246C76.6869 35.7883 76.7361 35.7643 76.789 35.7554C76.8419 35.7465 76.8963 35.7533 76.9454 35.7748C76.9946 35.7962 77.0364 35.8316 77.0657 35.8764C77.0951 35.9212 77.1107 35.9736 77.1107 36.0272C77.1107 36.0807 77.0951 36.1331 77.0657 36.178C77.0364 36.2228 76.9946 36.2581 76.9454 36.2796C76.8963 36.3011 76.8419 36.3078 76.789 36.299C76.7361 36.2901 76.6869 36.266 76.6474 36.2297C76.5967 36.176 76.5685 36.1051 76.5685 36.0313C76.5685 35.9576 76.5967 35.8866 76.6474 35.8329V35.8246Z" fill="#089DD9"/>
<path d="M76.8494 36.3289C76.772 36.3278 76.6979 36.2973 76.6423 36.2435C76.5893 36.1877 76.5597 36.1137 76.5597 36.0368C76.5597 35.9599 76.5893 35.8859 76.6423 35.8301C76.6977 35.7751 76.7726 35.7442 76.8507 35.7442C76.9289 35.7442 77.0038 35.7751 77.0592 35.8301C77.1122 35.8859 77.1418 35.9599 77.1418 36.0368C77.1418 36.1137 77.1122 36.1877 77.0592 36.2435C77.0029 36.2979 76.9277 36.3285 76.8494 36.3289ZM76.8494 35.7557C76.8124 35.7555 76.7757 35.7627 76.7416 35.7769C76.7074 35.7911 76.6765 35.812 76.6506 35.8384C76.6239 35.8641 76.6026 35.8949 76.5881 35.929C76.5736 35.9631 76.5661 35.9998 76.5661 36.0368C76.5661 36.0738 76.5736 36.1105 76.5881 36.1446C76.6026 36.1787 76.6239 36.2095 76.6506 36.2352C76.6764 36.2623 76.7074 36.2839 76.7418 36.2986C76.7762 36.3134 76.8133 36.321 76.8507 36.321C76.8882 36.321 76.9253 36.3134 76.9597 36.2986C76.9941 36.2839 77.0251 36.2623 77.0509 36.2352C77.0776 36.2095 77.0989 36.1787 77.1134 36.1446C77.1279 36.1105 77.1354 36.0738 77.1354 36.0368C77.1354 35.9998 77.1279 35.9631 77.1134 35.929C77.0989 35.8949 77.0776 35.8641 77.0509 35.8384C77.0247 35.8117 76.9933 35.7906 76.9587 35.7764C76.924 35.7622 76.8868 35.7551 76.8494 35.7557ZM76.8494 35.3231C75.9741 35.3231 75.5655 34.9345 75.5655 34.0995V33.5484C75.5528 33.3821 75.5747 33.2149 75.6298 33.0575C75.685 32.9 75.7721 32.7557 75.8858 32.6334C76.1549 32.4102 76.5005 32.3005 76.8494 32.3276C77.7163 32.3276 78.1222 32.7161 78.1222 33.5484V34.0995C78.1167 34.9125 77.6887 35.3231 76.8438 35.3231H76.8494ZM76.8494 32.3496C76.5036 32.3234 76.1612 32.4321 75.8941 32.6527C75.7823 32.7744 75.6967 32.9176 75.6425 33.0735C75.5884 33.2294 75.5669 33.3948 75.5793 33.5594V34.1105C75.5793 34.9373 75.9824 35.3231 76.8494 35.3231C77.1917 35.349 77.5306 35.2402 77.7936 35.0199C77.9056 34.8979 77.9913 34.7542 78.0455 34.5978C78.0996 34.4414 78.121 34.2755 78.1084 34.1105V33.5594C78.1029 32.7244 77.7025 32.3496 76.8438 32.3496H76.8494ZM76.8494 34.9125C76.2392 34.9125 76.0017 34.6837 76.0017 34.0995V33.5484C76.0017 32.9586 76.2309 32.7382 76.8494 32.7382C77.4678 32.7382 77.6777 32.9586 77.6777 33.5484V34.0995C77.6804 34.692 77.454 34.9125 76.8438 34.9125H76.8494ZM76.8494 32.7602C76.2392 32.7602 76.0211 32.9779 76.0211 33.5594V34.1105C76.0211 34.6865 76.2558 34.9125 76.8494 34.9125C77.443 34.9125 77.6777 34.6948 77.6777 34.1105V33.5594C77.6694 32.9779 77.4457 32.7602 76.8438 32.7602H76.8494ZM77.4016 32.0658H77.3546C77.3048 32.0734 77.2539 32.0643 77.2099 32.0399C77.1659 32.0154 77.1313 31.977 77.1117 31.9307L76.9764 31.7048C76.9322 31.6248 76.888 31.5835 76.8438 31.5835C76.7997 31.5835 76.7555 31.6248 76.7113 31.7048L76.5843 31.9307C76.5637 31.9769 76.5286 32.0151 76.4842 32.0395C76.4399 32.0639 76.3887 32.0731 76.3386 32.0658H76.2861C76.2199 32.0658 76.1867 32.0658 76.1729 32.0327C76.1591 31.9996 76.1729 31.9776 76.2088 31.9225L76.4269 31.5808C76.565 31.3686 76.6506 31.3052 76.8438 31.3052C77.0371 31.3052 77.1199 31.363 77.2607 31.5808L77.4816 31.9225C77.5175 31.9776 77.5286 32.0106 77.5175 32.0327C77.5065 32.0547 77.4706 32.0658 77.4016 32.0658ZM76.8494 31.5725C76.8991 31.5725 76.946 31.6138 76.9929 31.6992L77.1282 31.9225C77.1459 31.9677 77.1786 32.0054 77.2208 32.0295C77.263 32.0536 77.3122 32.0625 77.3601 32.0547H77.4071C77.4706 32.0547 77.5037 32.0547 77.512 32.0272C77.5203 31.9996 77.512 31.9803 77.4761 31.9307L77.258 31.5863C77.1172 31.3603 77.0371 31.3107 76.8494 31.3107C76.6616 31.3107 76.5733 31.3796 76.4435 31.5863L76.2226 31.9307C76.1923 31.9776 76.1812 32.0079 76.1895 32.0272C76.1978 32.0465 76.2337 32.0547 76.2916 32.0547H76.3441C76.3924 32.0616 76.4416 32.0524 76.484 32.0285C76.5265 32.0045 76.5598 31.9673 76.5788 31.9225L76.7058 31.6992C76.7472 31.6221 76.7969 31.5725 76.8438 31.5725H76.8494Z" fill="#089DD9"/>
<path d="M78.6717 33.5511C78.6717 32.7933 79.0831 32.3523 79.9666 32.3523C80.1398 32.3483 80.3125 32.3735 80.4774 32.4268C80.6182 32.4736 80.6513 32.5149 80.6513 32.6472V32.7051C80.6513 32.8511 80.6182 32.8897 80.4774 32.8456C80.3169 32.7894 80.1478 32.7614 79.9776 32.763C79.326 32.763 79.1052 33.0192 79.1052 33.5594V34.1105C79.1052 34.6947 79.3675 34.9042 80.0135 34.9042C80.1906 34.9075 80.3669 34.8815 80.5354 34.827C80.6706 34.7829 80.7093 34.827 80.7093 34.9731V35.0309C80.7093 35.1522 80.6706 35.199 80.5243 35.2404C80.3451 35.293 80.1589 35.318 79.9721 35.3148C79.0831 35.3148 78.6606 34.9317 78.6606 34.1133L78.6717 33.5511Z" fill="#089DD9"/>
<path d="M79.9832 35.3231C79.6265 35.3529 79.2716 35.2477 78.9892 35.0282C78.8731 34.9081 78.7841 34.7646 78.7284 34.6072C78.6727 34.4498 78.6514 34.2824 78.6662 34.1161V33.5512C78.6553 33.3894 78.6779 33.2272 78.7325 33.0745C78.7871 32.9219 78.8726 32.7821 78.9837 32.6638C79.2569 32.4334 79.61 32.3195 79.9666 32.3469C80.1407 32.3438 80.3141 32.3689 80.4801 32.4213C80.6237 32.4681 80.6596 32.5122 80.6596 32.6473V32.7051C80.6596 32.7878 80.6458 32.8347 80.6182 32.854C80.5906 32.8732 80.5436 32.8732 80.4746 32.854C80.3151 32.7975 80.1469 32.7696 79.9776 32.7713C79.3619 32.7713 79.1134 33 79.1134 33.5622V34.1133C79.1134 34.6865 79.3564 34.9015 80.0135 34.9015C80.1906 34.9055 80.367 34.8794 80.5353 34.8243C80.5564 34.8139 80.5795 34.8085 80.603 34.8085C80.6265 34.8085 80.6496 34.8139 80.6706 34.8243C80.701 34.8464 80.7148 34.8932 80.7148 34.9786V35.0365C80.7148 35.1633 80.6734 35.2101 80.5271 35.2515C80.3504 35.3026 80.167 35.3267 79.9832 35.3231ZM79.9666 32.3496C79.1245 32.3496 78.6772 32.763 78.6772 33.5429V34.1161C78.6772 34.9428 79.0941 35.3121 79.9832 35.3121C80.1656 35.3156 80.3474 35.2895 80.5215 35.2349C80.6651 35.1963 80.7038 35.155 80.7038 35.0338V34.9759C80.7038 34.896 80.7038 34.8519 80.6624 34.8326C80.6209 34.8133 80.5988 34.816 80.5381 34.8326C80.3684 34.8853 80.1912 34.9104 80.0135 34.907C79.3564 34.907 79.0996 34.6838 79.0996 34.1078V33.5567C79.0996 32.9862 79.3536 32.7547 79.9776 32.7547C80.1486 32.7533 80.3186 32.7812 80.4801 32.8374C80.5464 32.8595 80.585 32.8595 80.6099 32.8374C80.6347 32.8154 80.6458 32.7768 80.6458 32.6969V32.639C80.6458 32.5122 80.6154 32.4709 80.4746 32.4241C80.3105 32.3717 80.1389 32.3465 79.9666 32.3496Z" fill="#089DD9"/>
<path d="M82.6336 34.9455C82.6336 34.8022 82.6777 34.7664 82.8185 34.7967C83.0965 34.8731 83.3834 34.9121 83.6717 34.9125C84.119 34.9125 84.304 34.8298 84.304 34.5818C84.304 34.3972 84.2073 34.3062 83.9257 34.1657L83.2189 33.8267C82.8462 33.6476 82.6667 33.474 82.6667 33.0744C82.6667 32.5701 82.9925 32.3441 83.6965 32.3441C83.9422 32.3396 84.1868 32.3769 84.4199 32.4543C84.5607 32.5012 84.5966 32.5343 84.5966 32.6693V32.7244C84.5966 32.8677 84.5442 32.9035 84.4089 32.8622C84.1743 32.7871 83.9291 32.7498 83.6827 32.752C83.2603 32.752 83.0974 32.8457 83.0974 33.0771C83.0974 33.2397 83.2023 33.3527 83.4039 33.4602L84.1438 33.7964C84.5359 33.981 84.7236 34.1602 84.7236 34.5735C84.7236 35.0888 84.3757 35.3203 83.6192 35.3203C83.3393 35.3224 83.0605 35.2853 82.7909 35.2101C82.6446 35.1715 82.606 35.1164 82.606 34.9951L82.6336 34.9455Z" fill="#089DD9"/>
<path d="M83.6386 35.3231C83.3587 35.3246 83.08 35.2875 82.8103 35.2129C82.6667 35.1743 82.6226 35.1219 82.6226 34.9924V34.9455C82.6226 34.8684 82.6226 34.8243 82.664 34.8022C82.7054 34.7802 82.7358 34.7747 82.8131 34.8022C83.091 34.8785 83.3779 34.9175 83.6662 34.918C84.1218 34.918 84.293 34.8298 84.293 34.5928C84.293 34.4137 84.2046 34.3172 83.9175 34.1822L83.2162 33.8267C82.8628 33.6558 82.664 33.485 82.664 33.0689C82.664 32.5673 82.9925 32.3331 83.6993 32.3331C83.9456 32.3293 84.1909 32.3656 84.4255 32.4406C84.5635 32.4902 84.6049 32.5232 84.6049 32.6638V32.7244C84.6139 32.7501 84.6144 32.7779 84.6064 32.8038C84.5983 32.8298 84.5821 32.8525 84.5601 32.8685C84.5381 32.8846 84.5116 32.8932 84.4844 32.893C84.4571 32.8929 84.4307 32.884 84.4089 32.8677C84.1751 32.7936 83.9309 32.7573 83.6855 32.7602C83.2686 32.7602 83.1057 32.8484 83.1057 33.0771C83.1121 33.1634 83.1446 33.2456 83.1988 33.313C83.253 33.3804 83.3265 33.4298 83.4094 33.4547L84.1494 33.7909C84.5276 33.97 84.7319 34.1464 84.7319 34.5735C84.7402 35.0833 84.3896 35.3231 83.6386 35.3231ZM82.7385 34.794C82.7161 34.7928 82.6939 34.7985 82.675 34.8105C82.6502 34.8326 82.6391 34.8739 82.6391 34.9455V34.9924C82.6391 35.1136 82.6805 35.1632 82.8186 35.2018C83.0885 35.2756 83.3671 35.3127 83.6469 35.3121C84.4006 35.3121 84.7513 35.0833 84.7513 34.5708C84.7513 34.1519 84.5497 33.9755 84.1742 33.7991L83.4067 33.4629C83.3218 33.437 83.2468 33.3859 83.1916 33.3166C83.1364 33.2472 83.1036 33.1628 83.0974 33.0744C83.0974 32.8374 83.2631 32.7437 83.6883 32.7437C83.9356 32.7419 84.1816 32.7791 84.4172 32.8539C84.4386 32.8646 84.4623 32.8702 84.4862 32.8702C84.5102 32.8702 84.5338 32.8646 84.5552 32.8539C84.5829 32.8356 84.5967 32.7915 84.5967 32.7216V32.6693C84.5967 32.537 84.5608 32.5039 84.4255 32.4598C84.1923 32.3826 83.9477 32.3453 83.7021 32.3496C83.0036 32.3496 82.6778 32.5811 82.6778 33.0744C82.6778 33.4877 82.86 33.6503 83.2162 33.8212L83.923 34.1602C84.2129 34.2979 84.304 34.3999 84.304 34.5818C84.304 34.827 84.1328 34.918 83.6662 34.918C83.377 34.9175 83.0892 34.8785 82.8103 34.8022L82.7385 34.794Z" fill="#089DD9"/>
<path d="M85.2979 34.1023V33.5511C85.2979 32.7409 85.7203 32.3358 86.5734 32.3358C87.4735 32.3358 87.8407 32.7575 87.8407 33.5511V34.1023C87.8407 34.9143 87.4183 35.3203 86.5734 35.3203C85.6678 35.3176 85.2979 34.8959 85.2979 34.1023ZM87.4045 33.5511C87.4045 33 87.2057 32.7464 86.5762 32.7464C85.9467 32.7464 85.7341 32.9945 85.7341 33.5511V34.1023C85.7341 34.6534 85.9467 34.9097 86.5762 34.9097C87.2057 34.9097 87.4045 34.6589 87.4045 34.1023V33.5511ZM86.162 31.5753C86.3029 31.3631 86.3829 31.2997 86.5734 31.2997C86.7639 31.2997 86.8495 31.3575 86.9876 31.5753L87.2057 31.917C87.2775 32.0217 87.2554 32.052 87.1311 32.052H87.0842C87.0352 32.0589 86.9854 32.0493 86.9424 32.0249C86.8995 32.0005 86.8658 31.9625 86.8468 31.917L86.7115 31.6937C86.6204 31.5284 86.5292 31.5284 86.4354 31.6937L86.3084 31.917C86.2884 31.9624 86.2542 32.0002 86.2109 32.0246C86.1676 32.0489 86.1175 32.0586 86.0682 32.052H86.0157C85.8942 32.052 85.8777 32.0162 85.9439 31.917L86.162 31.5753ZM87.6447 31.228C87.6198 31.2723 87.5832 31.3088 87.5389 31.3336C87.4945 31.3584 87.4442 31.3705 87.3934 31.3686H87.3355C87.2002 31.3686 87.1836 31.3383 87.2471 31.2225L87.4928 30.754C87.515 30.6971 87.5556 30.6492 87.608 30.6178C87.6605 30.5863 87.722 30.5732 87.7827 30.5804H87.8407C87.9981 30.5804 88.0202 30.6135 87.9318 30.7485L87.6447 31.228Z" fill="#089DD9"/>
<path d="M86.5735 35.3231C85.6983 35.3231 85.2924 34.9345 85.2924 34.0995V33.5484C85.2801 33.3823 85.3018 33.2155 85.3564 33.0581C85.411 32.9008 85.4973 32.7563 85.61 32.6334C85.8793 32.4107 86.2248 32.3011 86.5735 32.3276C87.4405 32.3276 87.8463 32.7161 87.8463 33.5484V34.0995C87.8463 34.9125 87.4184 35.3231 86.5735 35.3231ZM86.5735 32.3496C86.2279 32.324 85.8856 32.4326 85.6182 32.6527C85.5065 32.7744 85.4209 32.9176 85.3667 33.0735C85.3126 33.2294 85.2911 33.3948 85.3035 33.5594V34.1105C85.3035 34.9373 85.7066 35.3231 86.5735 35.3231C86.9159 35.3493 87.2549 35.2405 87.5178 35.0199C87.6294 34.8962 87.7142 34.7509 87.7669 34.593C87.8197 34.4351 87.8392 34.268 87.8243 34.1023V33.5511C87.8243 32.7244 87.4322 32.3496 86.5735 32.3496ZM86.5735 34.9125C85.9634 34.9125 85.7259 34.6837 85.7259 34.0995V33.5484C85.7259 32.9586 85.9551 32.7382 86.5735 32.7382C87.192 32.7382 87.4018 32.9586 87.4018 33.5484V34.0995C87.4129 34.692 87.1837 34.9125 86.5735 34.9125ZM86.5735 32.7602C85.9634 32.7602 85.7452 32.9779 85.7452 33.5594V34.1105C85.7452 34.6865 85.9799 34.9125 86.5735 34.9125C87.1672 34.9125 87.4018 34.6947 87.4018 34.1105V33.5594C87.3991 32.9779 87.1754 32.7602 86.5735 32.7602ZM87.1257 32.0658H87.0788C87.0291 32.073 86.9784 32.0636 86.9345 32.0392C86.8906 32.0148 86.8559 31.9767 86.8358 31.9307L86.7033 31.7048C86.6122 31.5449 86.5238 31.5449 86.4272 31.7048L86.3002 31.9307C86.2796 31.9769 86.2445 32.0151 86.2001 32.0395C86.1557 32.0639 86.1046 32.0731 86.0545 32.0658H86.002C85.9385 32.0658 85.9026 32.0658 85.8916 32.0327C85.8805 31.9996 85.8916 31.9776 85.9247 31.9225L86.1428 31.5807C86.2809 31.3686 86.3665 31.3052 86.5597 31.3052C86.753 31.3052 86.8358 31.363 86.9766 31.5807L87.1975 31.9225C87.2362 31.9776 87.2472 32.0106 87.2334 32.0327C87.2196 32.0547 87.2003 32.0658 87.1313 32.0658H87.1257ZM86.5735 31.5725C86.6232 31.5725 86.6702 31.6138 86.7171 31.6992L86.8524 31.9225C86.8705 31.9673 86.9032 32.0048 86.9453 32.0288C86.9874 32.0528 87.0364 32.062 87.0843 32.0547H87.1313C87.1948 32.0547 87.2279 32.0547 87.2362 32.0272C87.2445 31.9996 87.2362 31.9803 87.2003 31.9307L86.9822 31.5863C86.8414 31.3603 86.7613 31.3107 86.5735 31.3107C86.3858 31.3107 86.2974 31.3796 86.1677 31.5863L85.9468 31.9307C85.9164 31.9776 85.9054 32.0079 85.9137 32.0272C85.9219 32.0465 85.9578 32.0547 86.0158 32.0547H86.0683C86.1165 32.0616 86.1657 32.0524 86.2082 32.0285C86.2506 32.0045 86.284 31.9673 86.303 31.9225L86.43 31.6992C86.4769 31.6221 86.5266 31.5725 86.5735 31.5725ZM87.4018 31.3823H87.3439C87.2693 31.3823 87.2334 31.3823 87.2196 31.3493C87.2058 31.3162 87.2196 31.2914 87.2527 31.228L87.4957 30.7595C87.5177 30.7011 87.5588 30.6518 87.6125 30.6198C87.6662 30.5877 87.7292 30.5748 87.7911 30.5832H87.8491C87.9375 30.5832 87.9789 30.5832 87.9927 30.619C88.0065 30.6548 87.9927 30.6879 87.9457 30.7595L87.6697 31.239C87.6434 31.2879 87.603 31.3276 87.5538 31.3532C87.5045 31.3788 87.4487 31.3889 87.3936 31.3823H87.4018ZM87.7911 30.5942C87.7324 30.5865 87.6729 30.5994 87.6226 30.6305C87.5723 30.6616 87.5343 30.7092 87.515 30.765L87.2693 31.2335C87.2362 31.2914 87.2279 31.3245 87.2389 31.3438C87.25 31.363 87.2831 31.3686 87.3521 31.3686H87.4101C87.4594 31.37 87.5082 31.3583 87.5514 31.3345C87.5947 31.3108 87.6307 31.2759 87.6558 31.2335L87.9319 30.754C87.9761 30.6879 87.9899 30.6465 87.9789 30.6245C87.9678 30.6025 87.9264 30.5942 87.8463 30.5942H87.7911Z" fill="#089DD9"/>
<path d="M88.8925 35.0751C88.8925 35.2294 88.8621 35.2597 88.7047 35.2597H88.6523C88.5087 35.2597 88.4673 35.2294 88.4673 35.0751V33.4216C88.4673 32.6969 88.8732 32.3386 89.6794 32.3386C90.5353 32.3386 90.8887 32.7217 90.8887 33.4216V35.0751C90.8887 35.2294 90.8611 35.2597 90.7037 35.2597H90.6347C90.4773 35.2597 90.4469 35.2294 90.4469 35.0751V33.4216C90.4469 32.9587 90.2675 32.7492 89.6794 32.7492C89.0913 32.7492 88.9035 32.9642 88.9035 33.4216L88.8925 35.0751Z" fill="#089DD9"/>
<path d="M90.6931 35.2652H90.6241C90.464 35.2652 90.4308 35.2349 90.4308 35.0751V33.4216C90.4308 32.9366 90.2237 32.7547 89.6688 32.7547C89.1138 32.7547 88.8985 32.9421 88.8985 33.4216V35.0751C88.8985 35.2349 88.8653 35.2652 88.7052 35.2652H88.6527C88.5092 35.2652 88.4595 35.2376 88.4595 35.0751V33.4216C88.4595 32.6996 88.8709 32.3193 89.6798 32.3193C90.014 32.2882 90.3472 32.3869 90.6103 32.5949C90.7108 32.7024 90.7874 32.8299 90.8349 32.9691C90.8825 33.1083 90.9001 33.2559 90.8864 33.4023V35.0558C90.8864 35.2349 90.8615 35.2652 90.6931 35.2652ZM89.6688 32.7492C90.221 32.7492 90.4419 32.9338 90.4419 33.4271V35.0806C90.4419 35.2321 90.4695 35.2597 90.6241 35.2597H90.6931C90.845 35.2597 90.8726 35.2321 90.8726 35.0806V33.4271C90.8858 33.282 90.868 33.1357 90.8204 32.998C90.7728 32.8602 90.6965 32.7341 90.5965 32.6279C90.3361 32.421 90.0058 32.3222 89.6743 32.3524C89.3488 32.3301 89.0264 32.4282 88.7687 32.6279C88.6632 32.7329 88.5816 32.8594 88.5297 32.9988C88.4777 33.1381 88.4566 33.2871 88.4678 33.4354V35.0888C88.4678 35.2432 88.5092 35.268 88.6472 35.268H88.7107C88.8653 35.268 88.8929 35.2404 88.8929 35.0888V33.4354C88.8874 32.9393 89.1055 32.7492 89.6688 32.7492Z" fill="#089DD9"/>
<path d="M93.8985 33.4161C93.8985 34.0885 93.4972 34.4247 92.6947 34.4247C92.4893 34.4153 92.2834 34.4311 92.0818 34.4716C92.0413 34.4788 92.0049 34.5003 91.979 34.5322C91.9532 34.5641 91.9396 34.6042 91.941 34.6452C91.941 34.7278 91.9879 34.7802 92.0873 34.8078C92.2883 34.8379 92.4916 34.8499 92.6947 34.8436C93.0361 34.8143 93.3791 34.8761 93.6887 35.0227C93.7856 35.0911 93.8624 35.1842 93.911 35.2923C93.9595 35.4004 93.9781 35.5195 93.9648 35.6372C93.9807 35.766 93.9638 35.8967 93.9155 36.0171C93.8672 36.1376 93.7892 36.2439 93.6887 36.3262C93.3855 36.4869 93.042 36.5558 92.7002 36.5246C92.3531 36.5561 92.0042 36.4872 91.6952 36.3262C91.6024 36.2554 91.5285 36.1627 91.4803 36.0564C91.4322 35.9501 91.4111 35.8335 91.4191 35.7172C91.4121 35.5937 91.4389 35.4707 91.4968 35.3614C91.5547 35.2521 91.6415 35.1607 91.7477 35.0971C91.6734 35.0655 91.6107 35.0117 91.5682 34.9431C91.5257 34.8745 91.5055 34.7945 91.5102 34.7141C91.5102 34.4605 91.6649 34.309 91.9796 34.2621C91.8187 34.1912 91.6846 34.0709 91.5967 33.9188C91.5089 33.7667 91.4718 33.5906 91.4909 33.4161V33.3472C91.4909 32.7134 91.9382 32.3441 92.6975 32.3441C92.9031 32.3401 93.1073 32.3795 93.2966 32.4599L93.6224 32.1733C93.719 32.0851 93.7632 32.0851 93.8598 32.1733L93.8985 32.2118C93.9924 32.3 93.9924 32.3469 93.8985 32.4406L93.6224 32.7161C93.7092 32.8 93.777 32.9014 93.8212 33.0136C93.8655 33.1258 93.8853 33.2461 93.8792 33.3665L93.8985 33.4161ZM92.126 35.2046C92.0372 35.2463 91.9632 35.3139 91.9138 35.3986C91.8645 35.4833 91.8422 35.5809 91.8499 35.6786C91.8499 36.0561 92.0625 36.1553 92.6782 36.1553C93.2939 36.1553 93.5064 36.0561 93.5064 35.662C93.5064 35.268 93.2939 35.2349 92.6782 35.2349C92.4936 35.236 92.3092 35.2259 92.126 35.2046ZM93.454 33.3555C93.454 32.9449 93.2 32.7409 92.692 32.7409C92.1839 32.7409 91.9189 32.9449 91.9189 33.3555V33.4244C91.9189 33.8432 92.1066 34.0499 92.692 34.0499C93.2773 34.0499 93.454 33.8432 93.454 33.4244V33.3555Z" fill="#089DD9"/>
<path d="M92.6917 36.5301C92.3437 36.5611 91.994 36.4923 91.6839 36.3317C91.5902 36.2603 91.5159 36.1667 91.4676 36.0594C91.4194 35.9521 91.3988 35.8344 91.4078 35.7171C91.4011 35.5947 91.4272 35.4727 91.4835 35.3637C91.5398 35.2547 91.6242 35.1626 91.7281 35.0971C91.6555 35.0636 91.5947 35.0093 91.5534 34.941C91.512 34.8728 91.4921 34.7937 91.4962 34.714C91.4962 34.4633 91.6508 34.3089 91.9517 34.2593C91.7944 34.1859 91.6641 34.065 91.5794 33.9137C91.4947 33.7624 91.4598 33.5883 91.4796 33.4161V33.3472C91.4734 33.2071 91.499 33.0674 91.5545 32.9386C91.6099 32.8098 91.6938 32.6951 91.7999 32.6031C92.0561 32.4107 92.3714 32.3133 92.6917 32.3276C92.897 32.3246 93.1008 32.363 93.2908 32.4405L93.6221 32.1732C93.7215 32.0823 93.7712 32.0823 93.8679 32.1732L93.9065 32.2146C93.959 32.2614 93.981 32.2945 93.981 32.3276C93.981 32.3606 93.959 32.3965 93.9065 32.4488L93.6497 32.7244C93.737 32.8077 93.805 32.9091 93.8489 33.0215C93.8928 33.1338 93.9115 33.2544 93.9037 33.3747V33.4436C93.9037 34.1188 93.4979 34.4605 92.6944 34.4605C92.4891 34.4512 92.2834 34.466 92.0815 34.5046C92.0428 34.5124 92.008 34.5334 91.9833 34.5642C91.9586 34.5949 91.9454 34.6333 91.9462 34.6727C91.9462 34.7526 91.9904 34.8022 92.087 34.8298C92.2881 34.8586 92.4914 34.8697 92.6944 34.8629C93.037 34.8321 93.3816 34.895 93.6911 35.0447C93.7888 35.1138 93.8659 35.2078 93.9145 35.3169C93.9631 35.426 93.9813 35.5462 93.9672 35.6648C93.9829 35.7943 93.9658 35.9257 93.9176 36.047C93.8694 36.1683 93.7915 36.2756 93.6911 36.3592C93.3816 36.5117 93.0344 36.571 92.6917 36.5301ZM92.6917 32.3496C91.9407 32.3496 91.4906 32.7216 91.4906 33.3472V33.4161C91.4699 33.5898 91.506 33.7655 91.5936 33.917C91.6812 34.0685 91.8155 34.1876 91.9766 34.2566H91.9959H91.9655C91.6535 34.3034 91.5017 34.4495 91.5017 34.703C91.497 34.7824 91.5171 34.8613 91.5591 34.9289C91.6011 34.9965 91.663 35.0494 91.7364 35.0806C91.6316 35.144 91.5462 35.2347 91.4893 35.343C91.4324 35.4513 91.4061 35.573 91.4133 35.6951C91.4053 35.8111 91.4263 35.9272 91.4745 36.0331C91.5227 36.1389 91.5966 36.2311 91.6894 36.3014C91.9973 36.4596 92.3439 36.5275 92.6889 36.497C93.0295 36.5273 93.3716 36.4594 93.6746 36.3014C93.7745 36.2192 93.8521 36.1133 93.9003 35.9934C93.9486 35.8735 93.9659 35.7435 93.9507 35.6152C93.9636 35.4983 93.9448 35.3801 93.8962 35.2729C93.8476 35.1658 93.7711 35.0736 93.6746 35.0062C93.3666 34.8578 93.0239 34.7959 92.6834 34.827C92.4793 34.8349 92.275 34.8229 92.0732 34.7912C91.9711 34.7609 91.9241 34.7085 91.9241 34.6231C91.9233 34.5812 91.9372 34.5403 91.9634 34.5076C91.9896 34.4749 92.0265 34.4524 92.0677 34.444C92.2703 34.404 92.477 34.3883 92.6834 34.3971C93.0035 34.4205 93.3218 34.3318 93.5835 34.1464C93.686 34.051 93.7658 33.9339 93.8169 33.8037C93.868 33.6735 93.8892 33.5335 93.8789 33.394V33.3251C93.8858 33.2057 93.8667 33.0862 93.8228 32.9749C93.779 32.8635 93.7114 32.763 93.6249 32.6803L93.901 32.4047C93.9507 32.3551 93.9728 32.322 93.97 32.2917C93.9672 32.2614 93.9507 32.2311 93.901 32.187L93.8623 32.1457C93.7712 32.0602 93.7298 32.0602 93.6332 32.1457L93.2963 32.4433C93.1037 32.3696 92.8976 32.3377 92.6917 32.3496ZM92.6917 36.1525C92.0428 36.1525 91.844 36.0396 91.844 35.6703C91.836 35.5719 91.8581 35.4733 91.9074 35.3877C91.9567 35.3021 92.0309 35.2334 92.1201 35.1908C92.3035 35.2113 92.4879 35.2205 92.6723 35.2183C93.2936 35.2183 93.5006 35.2845 93.5006 35.6538C93.5006 36.023 93.3295 36.1525 92.6917 36.1525ZM92.1395 35.2018C92.0516 35.2431 91.9782 35.31 91.929 35.3935C91.8797 35.4771 91.8569 35.5735 91.8634 35.6703C91.8634 36.0313 92.0594 36.1415 92.6917 36.1415C93.3239 36.1415 93.52 36.0285 93.52 35.6538C93.52 35.279 93.3129 35.2321 92.6917 35.2321C92.5026 35.2351 92.3136 35.2259 92.1257 35.2046L92.1395 35.2018ZM92.6917 34.0499C92.1395 34.0499 91.9131 33.8653 91.9131 33.4161V33.3472C91.9131 32.9283 92.1698 32.7271 92.6917 32.7271C93.2135 32.7271 93.4592 32.9338 93.4592 33.3472V33.4161C93.4592 33.8708 93.2439 34.0499 92.6917 34.0499ZM92.6917 32.7382C92.1781 32.7382 91.9269 32.9366 91.9269 33.3472V33.4161C91.9269 33.857 92.1478 34.0361 92.6917 34.0361C93.2356 34.0361 93.4482 33.8625 93.4482 33.4161V33.3472C93.4482 32.9421 93.1942 32.7382 92.6917 32.7382Z" fill="#089DD9"/>
<path d="M99.0281 31.9142C99.0281 32.0355 98.9867 32.0768 98.8624 32.0768H98.5145V34.1023C98.5145 34.907 98.0921 35.3121 97.2417 35.3121C96.3913 35.3121 95.9717 34.907 95.9717 34.1023V33.5511C95.9717 32.7244 96.372 32.3276 97.1755 32.3276C97.62 32.3276 97.9237 32.4654 98.0811 32.7492V32.0603H97.2914C97.1561 32.0603 97.1258 32.0189 97.1258 31.8977V31.8508C97.1258 31.7296 97.1561 31.6883 97.2914 31.6883H98.0811V31.3713C98.0811 31.2143 98.1087 31.1867 98.2661 31.1867H98.3323C98.4731 31.1867 98.5145 31.2143 98.5145 31.3713V31.6883H98.868C98.9922 31.6883 99.0336 31.7296 99.0336 31.8508L99.0281 31.9142ZM96.4079 34.1023C96.4079 34.6534 96.6012 34.9097 97.2362 34.9097C97.8712 34.9097 98.0645 34.659 98.0645 34.1023V33.5511C98.0645 33 97.8602 32.7465 97.2362 32.7465C96.6122 32.7465 96.4079 32.9945 96.4079 33.5511V34.1023Z" fill="#089DD9"/>
<path d="M97.2419 35.3231C96.8924 35.3528 96.5452 35.2439 96.2755 35.02C96.1646 34.8969 96.0799 34.7525 96.0268 34.5957C95.9736 34.4389 95.953 34.2729 95.9663 34.1078V33.5567C95.9417 33.2215 96.0498 32.8901 96.2673 32.6335C96.3903 32.5242 96.5342 32.4408 96.6902 32.3882C96.8463 32.3357 97.0114 32.3151 97.1756 32.3276C97.3483 32.3075 97.5233 32.3346 97.6818 32.4059C97.8403 32.4773 97.9765 32.5902 98.0757 32.7327V32.0713H97.2916C97.1591 32.0713 97.1204 32.0327 97.1204 31.9032V31.8591C97.1204 31.7268 97.1591 31.6883 97.2916 31.6883H98.0757V31.3769C98.0757 31.217 98.1061 31.184 98.2662 31.184H98.3325C98.4733 31.184 98.523 31.2143 98.523 31.3769V31.6883H98.8681C98.9951 31.6883 99.0393 31.7324 99.0393 31.8591V31.9032C99.0393 32.0272 98.9951 32.0713 98.8681 32.0713H98.5285V34.1023C98.523 34.929 98.0923 35.3231 97.2419 35.3231ZM97.1756 32.3496C97.0129 32.3375 96.8494 32.3581 96.6948 32.4102C96.5402 32.4623 96.3977 32.5448 96.2755 32.6528C96.0611 32.9075 95.955 33.2359 95.9801 33.5677V34.1188C95.9663 34.2818 95.9862 34.4458 96.0384 34.6008C96.0906 34.7558 96.1742 34.8985 96.2838 35.02C96.5503 35.2437 96.8949 35.3527 97.2419 35.3231C97.5868 35.3492 97.9283 35.2405 98.1944 35.02C98.3085 34.8976 98.3955 34.7527 98.4497 34.5946C98.5039 34.4365 98.5242 34.2687 98.5092 34.1023V32.0658H98.8681C98.9896 32.0658 99.0255 32.0272 99.0255 31.9087V31.8646C99.0255 31.7434 98.9896 31.7076 98.8681 31.7076H98.5092V31.3824C98.5092 31.2253 98.4705 31.2032 98.3325 31.2032H98.2662C98.1116 31.2032 98.0868 31.2281 98.0868 31.3824V31.7076H97.2916C97.1563 31.7076 97.1342 31.7461 97.1342 31.8646V31.9087C97.1342 32.0245 97.1563 32.0658 97.2916 32.0658H98.0868V32.7851V32.763C97.9892 32.6156 97.8519 32.4986 97.6908 32.4255C97.5296 32.3524 97.3511 32.3261 97.1756 32.3496ZM97.2419 34.9125C96.629 34.9125 96.4136 34.692 96.4136 34.0995V33.5484C96.4136 32.9642 96.6483 32.7382 97.2419 32.7382C97.8355 32.7382 98.0868 32.9642 98.0868 33.5484V34.0995C98.0868 34.6838 97.8493 34.9125 97.2419 34.9125ZM97.2419 32.7603C96.6455 32.7603 96.4136 32.9862 96.4136 33.5594V34.1106C96.4136 34.6948 96.6372 34.9125 97.2419 34.9125C97.8465 34.9125 98.0702 34.6948 98.0702 34.1106V33.5594C98.0757 32.978 97.8493 32.7603 97.2419 32.7603Z" fill="#089DD9"/>
<path d="M99.103 34.1023V33.5511C99.103 32.7409 99.5227 32.3358 100.379 32.3358C101.022 32.3358 101.389 32.5508 101.552 32.9669C101.643 32.9283 101.729 32.8153 101.729 32.5039C101.729 32.4157 101.759 32.3937 101.859 32.3937H101.961C102.057 32.3937 102.082 32.4157 102.082 32.5039C102.082 32.9724 101.894 33.1984 101.627 33.281C101.638 33.3724 101.644 33.4645 101.643 33.5566V34.1078C101.643 34.9198 101.222 35.3258 100.379 35.3258C99.473 35.3175 99.103 34.8959 99.103 34.1023ZM101.21 33.5511C101.21 33 101.011 32.7464 100.381 32.7464C99.7519 32.7464 99.5393 32.9944 99.5393 33.5511V34.1023C99.5393 34.6534 99.7491 34.9097 100.381 34.9097C101.014 34.9097 101.21 34.6589 101.21 34.1023V33.5511Z" fill="#089DD9"/>
<path d="M100.378 35.3231C99.5029 35.3231 99.0943 34.9345 99.0943 34.0995V33.5484C99.0816 33.3821 99.1035 33.215 99.1587 33.0575C99.2138 32.9001 99.3009 32.7557 99.4146 32.6335C99.6837 32.4103 100.029 32.3005 100.378 32.3276C101.01 32.3276 101.383 32.526 101.554 32.9559C101.668 32.9035 101.72 32.7547 101.72 32.5012C101.72 32.413 101.753 32.3855 101.858 32.3855H101.96C102.06 32.3855 102.087 32.4103 102.087 32.5012C102.087 32.9256 101.935 33.1874 101.632 33.2811C101.646 33.3722 101.652 33.4644 101.651 33.5567V34.1078C101.651 34.9125 101.223 35.3231 100.378 35.3231ZM100.378 32.3496C100.032 32.3234 99.69 32.4321 99.4229 32.6528C99.3111 32.7744 99.2255 32.9176 99.1713 33.0735C99.1172 33.2295 99.0957 33.3948 99.1081 33.5594V34.1106C99.1081 34.9373 99.5112 35.3231 100.378 35.3231C100.721 35.349 101.059 35.2402 101.322 35.02C101.434 34.8963 101.519 34.7509 101.572 34.593C101.624 34.4351 101.644 34.2681 101.629 34.1023V33.5511C101.629 33.459 101.624 33.367 101.612 33.2756C101.913 33.1846 102.065 32.9256 102.065 32.504C102.065 32.4185 102.04 32.3992 101.949 32.3992H101.847C101.75 32.3992 101.723 32.4213 101.723 32.504C101.723 32.7795 101.665 32.9201 101.543 32.9724C101.378 32.5508 101.008 32.3496 100.378 32.3496ZM100.378 34.9125C99.768 34.9125 99.5306 34.6838 99.5306 34.0995V33.5484C99.5306 32.9587 99.7597 32.7382 100.378 32.7382C100.997 32.7382 101.206 32.9587 101.206 33.5484V34.0995C101.215 34.692 100.988 34.9125 100.378 34.9125ZM100.378 32.7602C99.768 32.7602 99.5499 32.9779 99.5499 33.5594V34.1106C99.5499 34.6865 99.7846 34.9125 100.378 34.9125C100.972 34.9125 101.206 34.6948 101.206 34.1106V33.5594C101.204 32.9779 100.98 32.7602 100.378 32.7602Z" fill="#089DD9"/>
<path d="M102.697 35.0751C102.697 35.2294 102.667 35.2597 102.51 35.2597H102.457C102.311 35.2597 102.27 35.2294 102.27 35.0751V33.4216C102.27 32.6969 102.678 32.3386 103.484 32.3386C104.34 32.3386 104.694 32.7217 104.694 33.4216V35.0751C104.694 35.2294 104.663 35.2597 104.506 35.2597H104.44C104.28 35.2597 104.252 35.2294 104.252 35.0751V33.4216C104.252 32.9587 104.072 32.7492 103.484 32.7492C102.896 32.7492 102.709 32.9642 102.709 33.4216L102.697 35.0751Z" fill="#089DD9"/>
<path d="M104.495 35.2652H104.429C104.266 35.2652 104.233 35.2349 104.233 35.0751V33.4216C104.233 32.9366 104.028 32.7547 103.473 32.7547C102.919 32.7547 102.703 32.9421 102.703 33.4216V35.0751C102.703 35.2349 102.67 35.2652 102.51 35.2652H102.457C102.314 35.2652 102.264 35.2376 102.264 35.0751V33.4216C102.264 32.6996 102.676 32.3193 103.485 32.3193C103.819 32.2882 104.152 32.3869 104.415 32.5949C104.515 32.7027 104.591 32.8303 104.639 32.9693C104.686 33.1084 104.704 33.2559 104.691 33.4023V35.0558C104.688 35.2349 104.666 35.2652 104.495 35.2652ZM103.473 32.7492C104.026 32.7492 104.247 32.9338 104.247 33.4271V35.0806C104.247 35.2321 104.274 35.2597 104.429 35.2597H104.495C104.65 35.2597 104.677 35.2321 104.677 35.0806V33.4271C104.69 33.282 104.673 33.1357 104.625 32.998C104.577 32.8602 104.501 32.7341 104.401 32.6279C104.141 32.4215 103.81 32.3228 103.479 32.3524C103.153 32.3301 102.831 32.4282 102.573 32.6279C102.467 32.7326 102.386 32.859 102.334 32.9985C102.282 33.1379 102.261 33.287 102.272 33.4354V35.0888C102.272 35.2432 102.311 35.268 102.452 35.268H102.515C102.67 35.268 102.695 35.2404 102.695 35.0888V33.4354C102.689 32.9393 102.91 32.7492 103.473 32.7492Z" fill="#089DD9"/>
<path d="M109.252 33.4161C109.252 34.0885 108.851 34.4247 108.048 34.4247C107.842 34.4156 107.635 34.4313 107.433 34.4716C107.393 34.4794 107.357 34.5012 107.331 34.533C107.306 34.5648 107.293 34.6046 107.294 34.6452C107.294 34.7279 107.341 34.7802 107.441 34.8078C107.642 34.8381 107.845 34.85 108.048 34.8436C108.39 34.8143 108.733 34.8761 109.042 35.0227C109.139 35.0911 109.216 35.1842 109.264 35.2923C109.313 35.4004 109.332 35.5195 109.318 35.6373C109.334 35.766 109.317 35.8967 109.269 36.0172C109.221 36.1376 109.143 36.244 109.042 36.3262C108.739 36.4869 108.396 36.5559 108.054 36.5246C107.707 36.5561 107.358 36.4872 107.049 36.3262C106.956 36.2554 106.882 36.1627 106.834 36.0564C106.786 35.9501 106.765 35.8336 106.773 35.7172C106.766 35.5937 106.792 35.4707 106.85 35.3614C106.908 35.2522 106.995 35.1608 107.101 35.0971C107.027 35.0655 106.964 35.0117 106.922 34.9431C106.879 34.8746 106.859 34.7946 106.864 34.7141C106.864 34.4606 107.018 34.309 107.333 34.2621C107.172 34.1912 107.038 34.071 106.95 33.9189C106.862 33.7667 106.825 33.5907 106.844 33.4161V33.3472C106.844 32.7134 107.292 32.3441 108.051 32.3441C108.257 32.3401 108.461 32.3795 108.65 32.4599L108.984 32.165C109.081 32.0768 109.125 32.0768 109.222 32.165L109.26 32.2036C109.354 32.2918 109.354 32.3386 109.26 32.4323L108.984 32.7079C109.071 32.7918 109.139 32.8932 109.183 33.0054C109.227 33.1175 109.247 33.2379 109.241 33.3583L109.252 33.4161ZM107.482 35.2046C107.393 35.2463 107.319 35.314 107.27 35.3986C107.221 35.4833 107.198 35.581 107.206 35.6786C107.206 36.0561 107.419 36.1554 108.034 36.1554C108.65 36.1554 108.863 36.0561 108.863 35.6621C108.863 35.268 108.65 35.2349 108.034 35.2349C107.85 35.236 107.666 35.2259 107.482 35.2046ZM108.81 33.3555C108.81 32.9449 108.556 32.741 108.048 32.741C107.54 32.741 107.275 32.9449 107.275 33.3555V33.4244C107.275 33.8433 107.463 34.05 108.048 34.05C108.634 34.05 108.808 33.8267 108.808 33.4161L108.81 33.3555Z" fill="#089DD9"/>
<path d="M108.048 36.5301C107.7 36.5612 107.351 36.4923 107.041 36.3317C106.947 36.26 106.873 36.1664 106.825 36.0591C106.777 35.9519 106.756 35.8344 106.765 35.7172C106.758 35.5947 106.784 35.4727 106.84 35.3637C106.897 35.2547 106.981 35.1627 107.085 35.0971C107.012 35.0637 106.951 35.0093 106.91 34.941C106.869 34.8728 106.849 34.7937 106.853 34.7141C106.853 34.4633 107.008 34.309 107.308 34.2594C107.151 34.186 107.021 34.0651 106.936 33.9137C106.851 33.7624 106.817 33.5883 106.836 33.4161V33.3472C106.83 33.2071 106.856 33.0675 106.911 32.9386C106.967 32.8098 107.051 32.6951 107.157 32.6032C107.413 32.4107 107.728 32.3133 108.048 32.3276C108.254 32.3246 108.457 32.363 108.648 32.4406L108.976 32.1485C109.075 32.0575 109.125 32.0575 109.222 32.1485L109.26 32.1898C109.313 32.2366 109.335 32.2697 109.335 32.3028C109.335 32.3359 109.313 32.3717 109.26 32.424L109.004 32.6996C109.091 32.783 109.159 32.8844 109.203 32.9967C109.247 33.1091 109.265 33.2296 109.258 33.35V33.4189C109.258 34.094 108.852 34.4357 108.048 34.4357C107.843 34.4264 107.637 34.4412 107.435 34.4798C107.397 34.4876 107.362 34.5087 107.337 34.5394C107.313 34.5701 107.299 34.6085 107.3 34.6479C107.3 34.7279 107.344 34.7775 107.441 34.805C107.642 34.8339 107.845 34.8449 108.048 34.8381C108.391 34.8074 108.736 34.8702 109.045 35.02C109.143 35.089 109.22 35.183 109.268 35.2921C109.317 35.4013 109.335 35.5214 109.321 35.64C109.337 35.7696 109.32 35.901 109.272 36.0222C109.223 36.1435 109.145 36.2509 109.045 36.3345C108.739 36.4949 108.393 36.5629 108.048 36.5301ZM108.048 32.3496C107.297 32.3496 106.847 32.7217 106.847 33.3472V33.4161C106.827 33.5898 106.863 33.7655 106.95 33.917C107.038 34.0685 107.172 34.1876 107.333 34.2566H107.353H107.331C107.019 34.3035 106.867 34.4495 106.867 34.703C106.862 34.7824 106.882 34.8613 106.924 34.9289C106.966 34.9965 107.028 35.0495 107.101 35.0806C106.996 35.1439 106.911 35.2345 106.853 35.3428C106.796 35.451 106.769 35.5728 106.776 35.6951C106.768 35.8111 106.789 35.9272 106.837 36.033C106.885 36.1388 106.959 36.231 107.052 36.3014C107.359 36.46 107.706 36.5278 108.051 36.497C108.392 36.5269 108.734 36.459 109.037 36.3014C109.137 36.2192 109.214 36.1133 109.263 35.9935C109.311 35.8736 109.328 35.7435 109.313 35.6152C109.326 35.4983 109.307 35.3801 109.258 35.273C109.21 35.1658 109.133 35.0737 109.037 35.0062C108.729 34.8579 108.386 34.796 108.046 34.8271C107.842 34.8349 107.637 34.8229 107.435 34.7912C107.333 34.7609 107.286 34.7086 107.286 34.6231C107.286 34.5812 107.299 34.5404 107.326 34.5076C107.352 34.4749 107.389 34.4524 107.43 34.444C107.633 34.404 107.839 34.3883 108.046 34.3972C108.366 34.4206 108.684 34.3319 108.946 34.1464C109.048 34.0511 109.128 33.934 109.179 33.8038C109.23 33.6735 109.251 33.5335 109.241 33.3941V33.3252C109.248 33.2057 109.229 33.0862 109.185 32.9749C109.141 32.8636 109.074 32.7631 108.987 32.6803L109.263 32.4047C109.313 32.3551 109.335 32.3221 109.332 32.2918C109.33 32.2614 109.313 32.2311 109.263 32.187L109.225 32.1457C109.131 32.0603 109.092 32.0603 108.995 32.1457L108.659 32.4433C108.464 32.3689 108.256 32.3369 108.048 32.3496ZM108.048 36.1526C107.4 36.1526 107.201 36.0396 107.201 35.6703C107.193 35.5719 107.215 35.4734 107.264 35.3877C107.313 35.3021 107.388 35.2335 107.477 35.1908C107.66 35.2114 107.845 35.2205 108.029 35.2184C108.65 35.2184 108.857 35.2845 108.857 35.6538C108.89 36.0754 108.609 36.1526 108.048 36.1526ZM107.496 35.2018C107.408 35.2432 107.335 35.31 107.286 35.3936C107.236 35.4771 107.214 35.5736 107.22 35.6703C107.22 36.0313 107.413 36.1416 108.048 36.1416C108.683 36.1416 108.877 36.0286 108.877 35.6538C108.877 35.279 108.67 35.2322 108.048 35.2322C107.859 35.2351 107.67 35.2259 107.482 35.2046L107.496 35.2018ZM108.048 34.0499C107.496 34.0499 107.27 33.8653 107.27 33.4161V33.3472C107.27 32.9283 107.527 32.7272 108.048 32.7272C108.57 32.7272 108.816 32.9339 108.816 33.3472V33.4161C108.808 33.8708 108.601 34.0499 108.048 34.0499ZM108.048 32.7382C107.532 32.7382 107.284 32.9366 107.284 33.3472V33.4161C107.284 33.857 107.504 34.0362 108.048 34.0362C108.592 34.0362 108.805 33.8625 108.805 33.4161V33.3472C108.808 32.9421 108.551 32.7382 108.048 32.7382Z" fill="#089DD9"/>
<path d="M110.412 31.5091C110.412 31.5822 110.382 31.6523 110.331 31.704C110.279 31.7556 110.209 31.7847 110.135 31.7847C110.062 31.7847 109.992 31.7556 109.94 31.704C109.888 31.6523 109.859 31.5822 109.859 31.5091C109.859 31.436 109.888 31.3659 109.94 31.3142C109.992 31.2626 110.062 31.2335 110.135 31.2335C110.209 31.2335 110.279 31.2626 110.331 31.3142C110.382 31.3659 110.412 31.436 110.412 31.5091ZM109.912 32.5866C109.912 32.4433 109.937 32.402 110.094 32.402H110.16C110.304 32.402 110.345 32.4433 110.345 32.5866V35.0668C110.345 35.2211 110.304 35.2514 110.16 35.2514H110.094C109.937 35.2514 109.912 35.2211 109.912 35.0668V32.5866Z" fill="#089DD9"/>
<path d="M110.161 35.2652H110.094C109.934 35.2652 109.904 35.2349 109.904 35.0751V32.5949C109.904 32.4516 109.932 32.4048 110.094 32.4048H110.161C110.307 32.4048 110.351 32.4488 110.351 32.5949V35.0751C110.351 35.2377 110.304 35.2652 110.161 35.2652ZM110.094 32.4075C109.94 32.4075 109.918 32.4488 109.918 32.5866V35.0668C109.918 35.2211 109.943 35.2459 110.094 35.2459H110.161C110.296 35.2459 110.34 35.2211 110.34 35.0668V32.5866C110.34 32.4461 110.302 32.4075 110.161 32.4075H110.094ZM110.13 31.793C110.093 31.7956 110.055 31.7905 110.019 31.7778C109.983 31.7652 109.95 31.7453 109.923 31.7194C109.895 31.6936 109.873 31.6623 109.858 31.6275C109.843 31.5928 109.835 31.5553 109.835 31.5174C109.835 31.4788 109.843 31.4406 109.858 31.405C109.872 31.3694 109.894 31.337 109.922 31.3099C109.949 31.2827 109.982 31.2613 110.018 31.2467C110.053 31.2322 110.092 31.2249 110.13 31.2253C110.168 31.2252 110.205 31.2329 110.24 31.2477C110.275 31.2626 110.306 31.2844 110.332 31.3118C110.358 31.3391 110.378 31.3715 110.39 31.4069C110.403 31.4422 110.409 31.4798 110.406 31.5174C110.406 31.5905 110.377 31.6606 110.326 31.7123C110.274 31.7639 110.204 31.793 110.13 31.793ZM110.13 31.2418C110.057 31.2418 109.987 31.2709 109.935 31.3225C109.883 31.3742 109.854 31.4443 109.854 31.5174C109.854 31.5905 109.883 31.6606 109.935 31.7123C109.987 31.7639 110.057 31.793 110.13 31.793C110.204 31.793 110.274 31.7639 110.326 31.7123C110.377 31.6606 110.406 31.5905 110.406 31.5174C110.406 31.4443 110.377 31.3742 110.326 31.3225C110.274 31.2709 110.204 31.2418 110.13 31.2418Z" fill="#089DD9"/>
<path d="M113.278 34.4027C113.278 35.0448 112.9 35.3176 112.06 35.3176C111.395 35.3176 110.97 35.042 110.97 34.4468C110.97 33.8515 111.365 33.6008 112.157 33.6008H112.842V33.2535C112.842 32.8595 112.566 32.7272 112.08 32.7272C111.864 32.7233 111.649 32.7446 111.439 32.7906C111.304 32.8181 111.254 32.7906 111.254 32.6445V32.5977C111.254 32.4654 111.29 32.4323 111.431 32.402C111.637 32.3605 111.847 32.3411 112.058 32.3441C112.869 32.3441 113.278 32.6445 113.278 33.2535V34.4027ZM112.842 33.9425H112.162C111.646 33.9425 111.406 34.083 111.406 34.4468C111.406 34.8105 111.621 34.9401 112.058 34.9401C112.59 34.9401 112.842 34.8188 112.842 34.3889V33.9425ZM112.162 32.0768C112.052 32.0768 112.041 32.0355 112.022 31.9666C112.005 31.804 112.11 31.7351 112.298 31.5505C112.339 31.5166 112.366 31.4683 112.372 31.4155C112.372 31.319 112.325 31.2694 112.267 31.2666C112.18 31.2637 112.093 31.2817 112.013 31.319C111.999 31.3272 111.983 31.332 111.967 31.3332C111.951 31.3343 111.934 31.3317 111.919 31.3256C111.904 31.3195 111.89 31.31 111.88 31.2979C111.869 31.2858 111.861 31.2713 111.856 31.2556L111.831 31.2088C111.798 31.1206 111.856 31.0903 111.914 31.0627C112.022 31.015 112.139 30.9915 112.256 30.9938C112.312 30.9889 112.369 30.9965 112.422 31.0162C112.474 31.0358 112.522 31.067 112.561 31.1074C112.601 31.1478 112.63 31.1964 112.648 31.2497C112.666 31.303 112.672 31.3596 112.665 31.4155C112.665 31.6717 112.325 31.7765 112.309 31.9666C112.306 31.9938 112.294 32.0193 112.275 32.0392C112.256 32.059 112.231 32.0723 112.204 32.0768H112.162Z" fill="#089DD9"/>
<path d="M112.06 35.3231C111.342 35.3231 110.956 35.02 110.956 34.4468C110.956 33.8736 111.323 33.5953 112.148 33.5953H112.825V33.2535C112.825 32.887 112.601 32.7327 112.071 32.7327C111.857 32.7298 111.643 32.751 111.433 32.7961C111.409 32.8068 111.383 32.8123 111.357 32.8123C111.331 32.8123 111.305 32.8068 111.281 32.7961C111.265 32.7769 111.253 32.7545 111.246 32.7302C111.238 32.706 111.237 32.6806 111.24 32.6555V32.6087C111.24 32.4764 111.273 32.4378 111.422 32.4075C111.628 32.3666 111.839 32.3472 112.049 32.3496C112.877 32.3496 113.275 32.6555 113.275 33.2646V34.4137C113.283 35.0393 112.908 35.3231 112.06 35.3231ZM112.157 33.609C111.328 33.609 110.975 33.8681 110.975 34.4358C110.975 35.0034 111.35 35.3011 112.06 35.3011C112.381 35.327 112.703 35.2519 112.979 35.0861C113.081 35.003 113.161 34.8962 113.212 34.7752C113.263 34.6541 113.284 34.5225 113.272 34.3917V33.2425C113.281 33.1134 113.257 32.9841 113.205 32.8659C113.152 32.7478 113.07 32.6443 112.968 32.5646C112.696 32.396 112.377 32.3169 112.057 32.3386C111.847 32.3364 111.637 32.3558 111.43 32.3965C111.292 32.4268 111.262 32.4599 111.262 32.5866V32.6335C111.262 32.7024 111.262 32.7437 111.298 32.763C111.334 32.7823 111.367 32.7878 111.439 32.763C111.649 32.7157 111.864 32.6935 112.079 32.6969C112.618 32.6969 112.847 32.8567 112.847 33.2315V33.587L112.157 33.609ZM112.057 34.9456C111.615 34.9456 111.4 34.783 111.4 34.4468C111.4 34.1106 111.629 33.937 112.162 33.937H112.847V34.3779C112.847 34.8519 112.546 34.9456 112.057 34.9456ZM112.162 33.9507C111.638 33.9507 111.414 34.0996 111.414 34.4468C111.414 34.794 111.624 34.9345 112.057 34.9345C112.623 34.9345 112.833 34.7857 112.833 34.3834V33.9507H112.162ZM112.162 32.0823C112.046 32.0823 112.035 32.0382 112.016 31.9694C112.016 31.8288 112.071 31.7572 112.198 31.6304L112.281 31.545C112.321 31.5127 112.346 31.4662 112.353 31.4154C112.353 31.3162 112.3 31.2749 112.253 31.2721H112.228C112.15 31.2724 112.073 31.2903 112.002 31.3245C111.987 31.3326 111.97 31.3372 111.953 31.338C111.936 31.3388 111.919 31.3358 111.903 31.3292C111.887 31.3226 111.873 31.3126 111.861 31.2999C111.85 31.2872 111.841 31.272 111.836 31.2556L111.811 31.2115C111.776 31.1151 111.845 31.0848 111.897 31.0572C112.006 31.0098 112.124 30.9863 112.242 30.9883C112.299 30.9834 112.356 30.9912 112.41 31.0111C112.463 31.0311 112.511 31.0626 112.551 31.1035C112.591 31.1445 112.621 31.1937 112.639 31.2476C112.657 31.3016 112.663 31.3589 112.656 31.4154C112.649 31.4809 112.628 31.544 112.593 31.6003C112.559 31.6565 112.513 31.7044 112.458 31.7406C112.38 31.815 112.308 31.8812 112.303 31.9666C112.299 31.9955 112.286 32.0224 112.266 32.0433C112.245 32.0641 112.219 32.0778 112.19 32.0823H112.162ZM112.228 31.2556H112.256C112.308 31.2556 112.364 31.3025 112.364 31.4099C112.357 31.4636 112.33 31.5128 112.289 31.5477L112.206 31.6331C112.082 31.7599 112.013 31.8288 112.03 31.9611C112.046 32.0272 112.054 32.0658 112.162 32.0658H112.19C112.215 32.0613 112.239 32.0487 112.257 32.0298C112.275 32.011 112.286 31.9869 112.289 31.9611C112.314 31.8663 112.372 31.7833 112.452 31.7268C112.504 31.6905 112.549 31.6435 112.581 31.5889C112.614 31.5342 112.635 31.4732 112.643 31.4099C112.65 31.355 112.645 31.2991 112.627 31.2465C112.61 31.1938 112.581 31.1458 112.543 31.1058C112.504 31.0658 112.457 31.035 112.405 31.0156C112.353 30.9962 112.297 30.9888 112.242 30.9938C112.125 30.9915 112.009 31.015 111.903 31.0627C111.836 31.093 111.792 31.1206 111.823 31.2005L111.847 31.2473C111.852 31.2622 111.859 31.276 111.87 31.2875C111.88 31.2991 111.893 31.3081 111.907 31.3139C111.921 31.3198 111.937 31.3223 111.952 31.3213C111.968 31.3202 111.983 31.3157 111.996 31.308C112.069 31.2749 112.148 31.2579 112.228 31.2584V31.2556Z" fill="#089DD9"/>
<path d="M114.33 35.0751C114.33 35.2294 114.299 35.2597 114.142 35.2597H114.081C113.935 35.2597 113.894 35.2294 113.894 35.0751V33.4216C113.894 32.6969 114.299 32.3386 115.106 32.3386C115.962 32.3386 116.318 32.7217 116.318 33.4216V35.0751C116.318 35.2294 116.287 35.2597 116.13 35.2597H116.061C115.904 35.2597 115.873 35.2294 115.873 35.0751V33.4216C115.873 32.9587 115.696 32.7492 115.106 32.7492C114.515 32.7492 114.33 32.9642 114.33 33.4216V35.0751Z" fill="#089DD9"/>
<path d="M116.13 35.2652H116.061C115.9 35.2652 115.867 35.2349 115.867 35.0751V33.4216C115.867 32.9366 115.66 32.7547 115.105 32.7547C114.55 32.7547 114.335 32.9421 114.335 33.4216V35.0751C114.335 35.2349 114.305 35.2652 114.142 35.2652H114.081C113.935 35.2652 113.888 35.2376 113.888 35.0751V33.4216C113.888 32.6996 114.296 32.3193 115.105 32.3193C115.439 32.2882 115.773 32.3869 116.036 32.5949C116.136 32.7024 116.213 32.8299 116.26 32.9691C116.308 33.1083 116.326 33.2559 116.312 33.4023V35.0558C116.323 35.2349 116.29 35.2652 116.13 35.2652ZM115.105 32.7492C115.657 32.7492 115.878 32.9338 115.878 33.4271V35.0806C115.878 35.2321 115.906 35.2597 116.061 35.2597H116.13C116.284 35.2597 116.309 35.2321 116.309 35.0806V33.4271C116.322 33.282 116.304 33.1357 116.257 32.998C116.209 32.8602 116.133 32.7341 116.033 32.6279C115.773 32.421 115.442 32.3222 115.111 32.3524C114.786 32.3297 114.464 32.4279 114.208 32.6279C114.101 32.7323 114.019 32.8587 113.967 32.9981C113.914 33.1376 113.893 33.2868 113.904 33.4354V35.0888C113.904 35.2432 113.946 35.268 114.086 35.268H114.147C114.302 35.268 114.329 35.2404 114.329 35.0888V33.4354C114.329 32.9393 114.542 32.7492 115.105 32.7492Z" fill="#089DD9"/>
<path d="M118.604 31.3879C118.604 31.2308 118.642 31.2032 118.789 31.2032H118.852C119.007 31.2032 119.037 31.2308 119.037 31.3879V32.7382C119.142 32.5996 119.282 32.4905 119.442 32.4214C119.602 32.3524 119.777 32.3258 119.951 32.3441C120.663 32.3441 121.025 32.6803 121.025 33.3582V35.0751C121.025 35.2294 120.995 35.2597 120.84 35.2597H120.768C120.614 35.2597 120.583 35.2294 120.583 35.0751V33.4216C120.583 32.9642 120.379 32.7658 119.84 32.7658C119.302 32.7658 119.037 32.9862 119.037 33.5208V35.0861C119.037 35.2404 119.007 35.2707 118.852 35.2707H118.789C118.642 35.2707 118.604 35.2404 118.604 35.0861V31.3879Z" fill="#089DD9"/>
<path d="M120.84 35.2652H120.768C120.611 35.2652 120.578 35.2349 120.578 35.0751V33.4216C120.578 32.9586 120.365 32.7712 119.841 32.7712C119.316 32.7712 119.043 32.9945 119.043 33.5208V35.0861C119.043 35.2459 119.012 35.2762 118.852 35.2762H118.789C118.645 35.2762 118.598 35.2487 118.598 35.0861V31.3878C118.598 31.2225 118.642 31.1949 118.789 31.1949H118.852C119.012 31.1949 119.043 31.228 119.043 31.3878V32.7244C119.151 32.5909 119.29 32.4862 119.449 32.4199C119.607 32.3535 119.78 32.3275 119.951 32.3441C120.666 32.3441 121.031 32.6858 121.031 33.3637V35.0806C121.031 35.2349 120.997 35.2652 120.84 35.2652ZM119.852 32.7492C120.384 32.7492 120.6 32.9393 120.6 33.4106V35.064C120.6 35.2156 120.627 35.2432 120.779 35.2432H120.851C121.003 35.2432 121.028 35.2156 121.028 35.064V33.3582C121.028 32.6886 120.669 32.3496 119.962 32.3496C119.79 32.3324 119.616 32.3594 119.457 32.4278C119.298 32.4963 119.159 32.604 119.054 32.7409V32.7575V31.3796C119.054 31.228 119.026 31.2005 118.874 31.2005H118.811C118.67 31.2005 118.631 31.2225 118.631 31.3796V35.0668C118.631 35.2211 118.673 35.2459 118.811 35.2459H118.874C119.026 35.2459 119.054 35.2183 119.054 35.0668V33.5015C119.023 32.9752 119.275 32.7492 119.852 32.7492Z" fill="#089DD9"/>
<path d="M121.644 34.1023V33.5511C121.644 32.7409 122.066 32.3358 122.919 32.3358C123.562 32.3358 123.93 32.5508 124.093 32.9669C124.186 32.9283 124.269 32.8153 124.269 32.5039C124.269 32.4157 124.302 32.3937 124.399 32.3937H124.501C124.598 32.3937 124.623 32.4157 124.623 32.5039C124.623 32.9724 124.435 33.1984 124.167 33.281C124.18 33.3724 124.186 33.4644 124.186 33.5566V34.1078C124.186 34.9198 123.764 35.3258 122.919 35.3258C122.014 35.3175 121.644 34.8959 121.644 34.1023ZM123.75 33.5511C123.75 33 123.551 32.7464 122.922 32.7464C122.292 32.7464 122.08 32.9944 122.08 33.5511V34.1023C122.08 34.6534 122.29 34.9097 122.922 34.9097C123.554 34.9097 123.75 34.6589 123.75 34.1023V33.5511Z" fill="#089DD9"/>
<path d="M122.919 35.3231C122.044 35.3231 121.635 34.9345 121.635 34.0995V33.5484C121.623 33.3821 121.645 33.2149 121.7 33.0575C121.755 32.9 121.842 32.7557 121.956 32.6334C122.225 32.4107 122.57 32.3011 122.919 32.3276C123.551 32.3276 123.924 32.526 124.095 32.9559C124.209 32.9035 124.264 32.7547 124.264 32.5012C124.264 32.413 124.297 32.3854 124.399 32.3854H124.501C124.601 32.3854 124.628 32.4102 124.628 32.5012C124.628 32.9256 124.476 33.1873 124.175 33.281C124.187 33.3724 124.193 33.4645 124.192 33.5566V34.1078C124.192 34.9125 123.764 35.3231 122.919 35.3231ZM122.919 32.3496C122.573 32.3234 122.231 32.432 121.964 32.6527C121.852 32.7743 121.767 32.9175 121.712 33.0735C121.658 33.2294 121.637 33.3948 121.649 33.5594V34.1105C121.649 34.9373 122.052 35.3231 122.919 35.3231C123.262 35.349 123.6 35.2402 123.863 35.0199C123.975 34.8979 124.061 34.7542 124.115 34.5978C124.169 34.4414 124.191 34.2755 124.178 34.1105V33.5594C124.179 33.4673 124.173 33.3752 124.162 33.2838C124.46 33.1929 124.612 32.9338 124.612 32.5122C124.612 32.4268 124.587 32.4075 124.496 32.4075H124.394C124.297 32.4075 124.269 32.4295 124.269 32.5122C124.269 32.7878 124.211 32.9283 124.09 32.9807C123.919 32.5508 123.549 32.3496 122.919 32.3496ZM122.919 34.9125C122.309 34.9125 122.072 34.6837 122.072 34.0995V33.5484C122.072 32.9586 122.301 32.7382 122.919 32.7382C123.538 32.7382 123.747 32.9586 123.747 33.5484V34.0995C123.759 34.692 123.529 34.9125 122.919 34.9125ZM122.919 32.7602C122.309 32.7602 122.091 32.9779 122.091 33.5594V34.1105C122.091 34.6865 122.326 34.9125 122.919 34.9125C123.513 34.9125 123.747 34.6947 123.747 34.1105V33.5594C123.745 32.9779 123.521 32.7602 122.919 32.7602Z" fill="#089DD9"/>
<path d="M125.238 35.0751C125.238 35.2294 125.208 35.2597 125.051 35.2597H124.987C124.844 35.2597 124.802 35.2294 124.802 35.0751V33.4216C124.802 32.6969 125.208 32.3386 126.014 32.3386C126.87 32.3386 127.224 32.7217 127.224 33.4216V35.0751C127.224 35.2294 127.196 35.2597 127.036 35.2597H126.97C126.812 35.2597 126.782 35.2294 126.782 35.0751V33.4216C126.782 32.9587 126.602 32.7492 126.014 32.7492C125.426 32.7492 125.238 32.9642 125.238 33.4216V35.0751Z" fill="#089DD9"/>
<path d="M127.03 35.2652H126.964C126.801 35.2652 126.77 35.2349 126.77 35.0751V33.4216C126.77 32.9366 126.563 32.7547 126.008 32.7547C125.453 32.7547 125.238 32.9421 125.238 33.4216V35.0751C125.238 35.2349 125.205 35.2652 125.045 35.2652H124.981C124.838 35.2652 124.788 35.2376 124.788 35.0751V33.4216C124.788 32.6996 125.199 32.3193 126.008 32.3193C126.343 32.2882 126.676 32.3869 126.939 32.5949C127.039 32.7024 127.116 32.8299 127.164 32.9691C127.211 33.1083 127.229 33.2559 127.215 33.4023V35.0558C127.232 35.2349 127.198 35.2652 127.03 35.2652ZM126.008 32.7492C126.561 32.7492 126.782 32.9338 126.782 33.4271V35.0806C126.782 35.2321 126.809 35.2597 126.964 35.2597H127.03C127.185 35.2597 127.212 35.2321 127.212 35.0806V33.4271C127.225 33.282 127.208 33.1357 127.16 32.998C127.112 32.8602 127.036 32.7341 126.936 32.6279C126.676 32.421 126.345 32.3222 126.014 32.3524C125.688 32.3301 125.366 32.4282 125.108 32.6279C125.003 32.7329 124.921 32.8594 124.869 32.9988C124.817 33.1381 124.796 33.2871 124.807 33.4354V35.0888C124.807 35.2432 124.846 35.268 124.987 35.268H125.05C125.205 35.268 125.233 35.2404 125.233 35.0888V33.4354C125.233 32.9393 125.451 32.7492 126.014 32.7492H126.008Z" fill="#089DD9"/>
</svg>
